<?xml version="1.0" encoding="us-ascii" standalone="no"?><svg xmlns="http://www.w3.org/2000/svg" xmlns:xlink="http://www.w3.org/1999/xlink" contentStyleType="text/css" height="719px" preserveAspectRatio="none" style="width:3869px;height:719px;background:#FFFFFF;" version="1.1" viewBox="0 0 3869 719" width="3869px" zoomAndPan="magnify"><defs/><g><!--cluster cmder--><g id="cluster_cmder"><path d="M8.5,71.28 L57.5,71.28 A3.75,3.75 0 0 1 60,73.78 L67,94.2946 L3225.5,94.2946 A2.5,2.5 0 0 1 3228,96.7946 L3228,709.9 A2.5,2.5 0 0 1 3225.5,712.4 L8.5,712.4 A2.5,2.5 0 0 1 6,709.9 L6,73.78 A2.5,2.5 0 0 1 8.5,71.28 " fill="none" style="stroke:#000000;stroke-width:1.5;"/><line style="stroke:#000000;stroke-width:1.5;" x1="6" x2="67" y1="94.2946" y2="94.2946"/><text fill="#000000" font-family="sans-serif" font-size="14" font-weight="bold" lengthAdjust="spacing" textLength="48" x="10" y="87.3552">cmder</text></g><!--cluster tst--><g id="cluster_tst"><path d="M2573.5,187.25 L2594.5,187.25 A3.75,3.75 0 0 1 2597,189.75 L2604,210.2646 L3201.5,210.2646 A2.5,2.5 0 0 1 3204,212.7646 L3204,369.82 A2.5,2.5 0 0 1 3201.5,372.32 L2573.5,372.32 A2.5,2.5 0 0 1 2571,369.82 L2571,189.75 A2.5,2.5 0 0 1 2573.5,187.25 " fill="none" style="stroke:#000000;stroke-width:1.5;"/><line style="stroke:#000000;stroke-width:1.5;" x1="2571" x2="2604" y1="210.2646" y2="210.2646"/><text fill="#000000" font-family="sans-serif" font-size="14" font-weight="bold" lengthAdjust="spacing" textLength="20" x="2575" y="203.3252">tst</text></g><!--cluster tools--><g id="cluster_tools"><path d="M2450.5,452.28 L2489.5,452.28 A3.75,3.75 0 0 1 2492,454.78 L2499,475.2946 L3201.5,475.2946 A2.5,2.5 0 0 1 3204,477.7946 L3204,685.9 A2.5,2.5 0 0 1 3201.5,688.4 L2450.5,688.4 A2.5,2.5 0 0 1 2448,685.9 L2448,454.78 A2.5,2.5 0 0 1 2450.5,452.28 " fill="none" style="stroke:#000000;stroke-width:1.5;"/><line style="stroke:#000000;stroke-width:1.5;" x1="2448" x2="2499" y1="475.2946" y2="475.2946"/><text fill="#000000" font-family="sans-serif" font-size="14" font-weight="bold" lengthAdjust="spacing" textLength="38" x="2452" y="468.3552">tools</text></g><!--cluster common--><g id="cluster_common"><path d="M2009.5,503.33 L2076.5,503.33 A3.75,3.75 0 0 1 2079,505.83 L2086,526.3446 L2421.5,526.3446 A2.5,2.5 0 0 1 2424,528.8446 L2424,634.86 A2.5,2.5 0 0 1 2421.5,637.36 L2009.5,637.36 A2.5,2.5 0 0 1 2007,634.86 L2007,505.83 A2.5,2.5 0 0 1 2009.5,503.33 " fill="none" style="stroke:#000000;stroke-width:1.5;"/><line style="stroke:#000000;stroke-width:1.5;" x1="2007" x2="2086" y1="526.3446" y2="526.3446"/><text fill="#000000" font-family="sans-serif" font-size="14" font-weight="bold" lengthAdjust="spacing" textLength="66" x="2011" y="519.4052">common</text></g><!--cluster agent--><g id="cluster_agent"><path d="M826.5,115.28 L871.5,115.28 A3.75,3.75 0 0 1 874,117.78 L881,138.2946 L1980.5,138.2946 A2.5,2.5 0 0 1 1983,140.7946 L1983,617.84 A2.5,2.5 0 0 1 1980.5,620.34 L826.5,620.34 A2.5,2.5 0 0 1 824,617.84 L824,117.78 A2.5,2.5 0 0 1 826.5,115.28 " fill="none" style="stroke:#000000;stroke-width:1.5;"/><line style="stroke:#000000;stroke-width:1.5;" x1="824" x2="881" y1="138.2946" y2="138.2946"/><text fill="#000000" font-family="sans-serif" font-size="14" font-weight="bold" lengthAdjust="spacing" textLength="44" x="828" y="131.3552">agent</text></g><!--class IControllableThread--><g id="elem_IControllableThread"><rect codeLine="17" fill="#F1F1F1" height="99.0439" id="IControllableThread" rx="2.5" ry="2.5" style="stroke:#181818;stroke-width:0.5;" width="204" x="22" y="240.26"/><ellipse cx="50.5" cy="256.26" fill="#A9DCDF" rx="11" ry="11" style="stroke:#181818;stroke-width:1.0;"/><path d="M56.0781,262.01 L53.9219,262.01 L52.6406,257.9163 L49.2969,257.9163 L47.9844,262.01 L45.8438,262.01 L49.8906,249.6038 L52.0313,249.6038 L56.0781,262.01 Z M52.0313,256.0413 L50.9531,252.6663 L49.9063,256.0413 L52.0313,256.0413 Z " fill="#000000"/><text fill="#000000" font-family="sans-serif" font-size="14" font-style="italic" lengthAdjust="spacing" textLength="142" x="67.5" y="261.8279">IControllableThread</text><line style="stroke:#181818;stroke-width:0.5;" x1="23" x2="225" y1="272.26" y2="272.26"/><line style="stroke:#181818;stroke-width:0.5;" x1="23" x2="225" y1="280.26" y2="280.26"/><ellipse cx="33" cy="294.2673" fill="#84BE84" rx="3" ry="3" style="stroke:#038048;stroke-width:1.0;"/><text fill="#000000" font-family="sans-serif" font-size="14" font-style="italic" lengthAdjust="spacing" textLength="178" x="42" y="298.3352">getStatus() : int {query}</text><ellipse cx="33" cy="311.282" fill="#84BE84" rx="3" ry="3" style="stroke:#038048;stroke-width:1.0;"/><text fill="#000000" font-family="sans-serif" font-size="14" font-style="italic" lengthAdjust="spacing" textLength="91" x="42" y="315.3498">start() : void</text><ellipse cx="33" cy="328.2966" fill="#84BE84" rx="3" ry="3" style="stroke:#038048;stroke-width:1.0;"/><text fill="#000000" font-family="sans-serif" font-size="14" font-style="italic" lengthAdjust="spacing" textLength="89" x="42" y="332.3645">stop() : void</text></g><!--class IStatProvider--><g id="elem_IStatProvider"><rect codeLine="23" fill="#F1F1F1" height="65.0146" id="IStatProvider" rx="2.5" ry="2.5" style="stroke:#181818;stroke-width:0.5;" width="543" x="261.5" y="257.28"/><ellipse cx="481.75" cy="273.28" fill="#A9DCDF" rx="11" ry="11" style="stroke:#181818;stroke-width:1.0;"/><path d="M487.3281,279.03 L485.1719,279.03 L483.8906,274.9363 L480.5469,274.9363 L479.2344,279.03 L477.0938,279.03 L481.1406,266.6238 L483.2813,266.6238 L487.3281,279.03 Z M483.2813,273.0613 L482.2031,269.6863 L481.1563,273.0613 L483.2813,273.0613 Z " fill="#000000"/><text fill="#000000" font-family="sans-serif" font-size="14" font-style="italic" lengthAdjust="spacing" textLength="94" x="502.25" y="278.8479">IStatProvider</text><line style="stroke:#181818;stroke-width:0.5;" x1="262.5" x2="803.5" y1="289.28" y2="289.28"/><line style="stroke:#181818;stroke-width:0.5;" x1="262.5" x2="803.5" y1="297.28" y2="297.28"/><ellipse cx="272.5" cy="311.2873" fill="#84BE84" rx="3" ry="3" style="stroke:#038048;stroke-width:1.0;"/><text fill="#000000" font-family="sans-serif" font-size="14" font-style="italic" lengthAdjust="spacing" textLength="517" x="281.5" y="315.3552">statNotification(const std::string&amp; notificationName) : uint64_t {query}</text></g><!--class Status--><g id="elem_Status"><rect codeLine="27" fill="#F1F1F1" height="116.0586" id="Status" rx="2.5" ry="2.5" style="stroke:#181818;stroke-width:0.5;" width="79" x="84.5" y="522.31"/><ellipse cx="99.5" cy="538.31" fill="#EB937F" rx="11" ry="11" style="stroke:#181818;stroke-width:1.0;"/><path d="M103.4375,544.81 L96.625,544.81 L96.625,532.4038 L103.375,532.4038 L103.375,534.2788 L98.6719,534.2788 L98.6719,537.2319 L103.2031,537.2319 L103.2031,539.0913 L98.6719,539.0913 L98.6719,542.935 L103.4375,542.935 L103.4375,544.81 Z " fill="#000000"/><text fill="#000000" font-family="sans-serif" font-size="14" lengthAdjust="spacing" textLength="47" x="113.5" y="543.8779">Status</text><line style="stroke:#181818;stroke-width:0.5;" x1="85.5" x2="162.5" y1="554.31" y2="554.31"/><text fill="#000000" font-family="sans-serif" font-size="14" lengthAdjust="spacing" textLength="23" x="90.5" y="572.3852">Init</text><text fill="#000000" font-family="sans-serif" font-size="14" lengthAdjust="spacing" textLength="28" x="90.5" y="589.3998">Run</text><text fill="#000000" font-family="sans-serif" font-size="14" lengthAdjust="spacing" textLength="36" x="90.5" y="606.4145">Start</text><text fill="#000000" font-family="sans-serif" font-size="14" lengthAdjust="spacing" textLength="34" x="90.5" y="623.4291">Stop</text><line style="stroke:#181818;stroke-width:0.5;" x1="85.5" x2="162.5" y1="630.3686" y2="630.3686"/></g><!--class TaskTest--><g id="elem_TaskTest"><rect codeLine="35" fill="#F1F1F1" height="116.0586" id="TaskTest" rx="2.5" ry="2.5" style="stroke:#181818;stroke-width:0.5;" width="221" x="2967.5" y="231.75"/><ellipse cx="3041.75" cy="247.75" fill="#ADD1B2" rx="11" ry="11" style="stroke:#181818;stroke-width:1.0;"/><path d="M3045.9063,253.2969 Q3044.2188,254.4688 3042.2813,254.4688 Q3039.8438,254.4688 3038.5625,252.7969 Q3037.2969,251.125 3037.2969,248.0469 Q3037.2969,245.0938 3038.5313,243.3594 Q3039.7656,241.625 3042.2813,241.625 Q3043.1875,241.625 3044.0625,241.8594 Q3044.9531,242.0938 3045.7188,242.6406 L3045.0313,244.3125 Q3043.5938,243.5156 3042.2813,243.5156 Q3040.8594,243.5156 3040.1406,244.5781 Q3039.4375,245.625 3039.4375,248.0469 Q3039.4375,252.5938 3042.2813,252.5938 Q3043.5469,252.5938 3045.2344,251.6094 L3045.9063,253.2969 Z " fill="#000000"/><text fill="#000000" font-family="sans-serif" font-size="14" lengthAdjust="spacing" textLength="64" x="3062.25" y="253.3179">TaskTest</text><line style="stroke:#181818;stroke-width:0.5;" x1="2968.5" x2="3187.5" y1="263.75" y2="263.75"/><line style="stroke:#181818;stroke-width:0.5;" x1="2968.5" x2="3187.5" y1="271.75" y2="271.75"/><polygon fill="#FFFF44" points="2978.5,280.7573,2982.5,284.7573,2978.5,288.7573,2974.5,284.7573" style="stroke:#B38D22;stroke-width:1.0;"/><text fill="#000000" font-family="sans-serif" font-size="14" lengthAdjust="spacing" textLength="100" x="2987.5" y="289.8252">SetUp() : void</text><polygon fill="#FFFF44" points="2978.5,297.772,2982.5,301.772,2978.5,305.772,2974.5,301.772" style="stroke:#B38D22;stroke-width:1.0;"/><text fill="#000000" font-family="sans-serif" font-size="14" lengthAdjust="spacing" text-decoration="underline" textLength="167" x="2987.5" y="306.8398">SetUpTestSuite() : void</text><polygon fill="#FFFF44" points="2978.5,314.7866,2982.5,318.7866,2978.5,322.7866,2974.5,318.7866" style="stroke:#B38D22;stroke-width:1.0;"/><text fill="#000000" font-family="sans-serif" font-size="14" lengthAdjust="spacing" textLength="128" x="2987.5" y="323.8545">TearDown() : void</text><polygon fill="#FFFF44" points="2978.5,331.8013,2982.5,335.8013,2978.5,339.8013,2974.5,335.8013" style="stroke:#B38D22;stroke-width:1.0;"/><text fill="#000000" font-family="sans-serif" font-size="14" lengthAdjust="spacing" text-decoration="underline" textLength="195" x="2987.5" y="340.8691">TearDownTestSuite() : void</text></g><!--class ThreadPoolTest--><g id="elem_ThreadPoolTest"><rect codeLine="42" fill="#F1F1F1" height="133.0732" id="ThreadPoolTest" rx="2.5" ry="2.5" style="stroke:#181818;stroke-width:0.5;" width="345" x="2587.5" y="223.25"/><ellipse cx="2701.25" cy="239.25" fill="#ADD1B2" rx="11" ry="11" style="stroke:#181818;stroke-width:1.0;"/><path d="M2705.4063,244.7969 Q2703.7188,245.9688 2701.7813,245.9688 Q2699.3438,245.9688 2698.0625,244.2969 Q2696.7969,242.625 2696.7969,239.5469 Q2696.7969,236.5938 2698.0313,234.8594 Q2699.2656,233.125 2701.7813,233.125 Q2702.6875,233.125 2703.5625,233.3594 Q2704.4531,233.5938 2705.2188,234.1406 L2704.5313,235.8125 Q2703.0938,235.0156 2701.7813,235.0156 Q2700.3594,235.0156 2699.6406,236.0781 Q2698.9375,237.125 2698.9375,239.5469 Q2698.9375,244.0938 2701.7813,244.0938 Q2703.0469,244.0938 2704.7344,243.1094 L2705.4063,244.7969 Z " fill="#000000"/><text fill="#000000" font-family="sans-serif" font-size="14" lengthAdjust="spacing" textLength="109" x="2721.75" y="244.8179">ThreadPoolTest</text><line style="stroke:#181818;stroke-width:0.5;" x1="2588.5" x2="2931.5" y1="255.25" y2="255.25"/><polygon fill="none" points="2598.5,264.2573,2602.5,268.2573,2598.5,272.2573,2594.5,268.2573" style="stroke:#B38D22;stroke-width:1.0;"/><text fill="#000000" font-family="sans-serif" font-size="14" lengthAdjust="spacing" textLength="319" x="2607.5" y="273.3252">mThreadPool : std::unique_ptr&lt;ThreadPool&gt;</text><line style="stroke:#181818;stroke-width:0.5;" x1="2588.5" x2="2931.5" y1="280.2646" y2="280.2646"/><polygon fill="#FFFF44" points="2598.5,289.272,2602.5,293.272,2598.5,297.272,2594.5,293.272" style="stroke:#B38D22;stroke-width:1.0;"/><text fill="#000000" font-family="sans-serif" font-size="14" lengthAdjust="spacing" textLength="100" x="2607.5" y="298.3398">SetUp() : void</text><polygon fill="#FFFF44" points="2598.5,306.2866,2602.5,310.2866,2598.5,314.2866,2594.5,310.2866" style="stroke:#B38D22;stroke-width:1.0;"/><text fill="#000000" font-family="sans-serif" font-size="14" lengthAdjust="spacing" text-decoration="underline" textLength="167" x="2607.5" y="315.3545">SetUpTestSuite() : void</text><polygon fill="#FFFF44" points="2598.5,323.3013,2602.5,327.3013,2598.5,331.3013,2594.5,327.3013" style="stroke:#B38D22;stroke-width:1.0;"/><text fill="#000000" font-family="sans-serif" font-size="14" lengthAdjust="spacing" textLength="128" x="2607.5" y="332.3691">TearDown() : void</text><polygon fill="#FFFF44" points="2598.5,340.3159,2602.5,344.3159,2598.5,348.3159,2594.5,344.3159" style="stroke:#B38D22;stroke-width:1.0;"/><text fill="#000000" font-family="sans-serif" font-size="14" lengthAdjust="spacing" text-decoration="underline" textLength="195" x="2607.5" y="349.3838">TearDownTestSuite() : void</text></g><!--class ThreadPool--><g id="elem_ThreadPool"><rect codeLine="52" fill="#F1F1F1" height="184.1172" id="ThreadPool" rx="2.5" ry="2.5" style="stroke:#181818;stroke-width:0.5;" width="724" x="2464" y="488.28"/><ellipse cx="2782.75" cy="504.28" fill="#ADD1B2" rx="11" ry="11" style="stroke:#181818;stroke-width:1.0;"/><path d="M2786.9063,509.8269 Q2785.2188,510.9988 2783.2813,510.9988 Q2780.8438,510.9988 2779.5625,509.3269 Q2778.2969,507.655 2778.2969,504.5769 Q2778.2969,501.6238 2779.5313,499.8894 Q2780.7656,498.155 2783.2813,498.155 Q2784.1875,498.155 2785.0625,498.3894 Q2785.9531,498.6238 2786.7188,499.1706 L2786.0313,500.8425 Q2784.5938,500.0456 2783.2813,500.0456 Q2781.8594,500.0456 2781.1406,501.1081 Q2780.4375,502.155 2780.4375,504.5769 Q2780.4375,509.1238 2783.2813,509.1238 Q2784.5469,509.1238 2786.2344,508.1394 L2786.9063,509.8269 Z " fill="#000000"/><text fill="#000000" font-family="sans-serif" font-size="14" lengthAdjust="spacing" textLength="78" x="2803.25" y="509.8479">ThreadPool</text><line style="stroke:#181818;stroke-width:0.5;" x1="2465" x2="3187" y1="520.28" y2="520.28"/><rect fill="none" height="6" style="stroke:#C82930;stroke-width:1.0;" width="6" x="2472" y="531.2873"/><text fill="#000000" font-family="sans-serif" font-size="14" lengthAdjust="spacing" textLength="171" x="2484" y="538.3552">mStopThreadPool : bool</text><rect fill="none" height="6" style="stroke:#C82930;stroke-width:1.0;" width="6" x="2472" y="548.302"/><text fill="#000000" font-family="sans-serif" font-size="14" lengthAdjust="spacing" textLength="312" x="2484" y="555.3698">mConditionVariable : std::condition_variable</text><rect fill="none" height="6" style="stroke:#C82930;stroke-width:1.0;" width="6" x="2472" y="565.3166"/><text fill="#000000" font-family="sans-serif" font-size="14" lengthAdjust="spacing" textLength="152" x="2484" y="572.3845">mMutex : std::mutex</text><rect fill="none" height="6" style="stroke:#C82930;stroke-width:1.0;" width="6" x="2472" y="582.3313"/><text fill="#000000" font-family="sans-serif" font-size="14" lengthAdjust="spacing" textLength="268" x="2484" y="589.3991">mThreads : std::vector&lt;std::thread&gt;</text><line style="stroke:#181818;stroke-width:0.5;" x1="2465" x2="3187" y1="596.3386" y2="596.3386"/><ellipse cx="2475" cy="610.3459" fill="#84BE84" rx="3" ry="3" style="stroke:#038048;stroke-width:1.0;"/><text fill="#000000" font-family="sans-serif" font-size="14" lengthAdjust="spacing" textLength="226" x="2484" y="614.4138">ThreadPool(size_t threadCount)</text><rect fill="#F24D5C" height="6" style="stroke:#C82930;stroke-width:1.0;" width="6" x="2472" y="624.3606"/><text fill="#000000" font-family="sans-serif" font-size="14" lengthAdjust="spacing" textLength="109" x="2484" y="631.4284">function&lt;void()</text><ellipse cx="2475" cy="644.3752" fill="#84BE84" rx="3" ry="3" style="stroke:#038048;stroke-width:1.0;"/><text fill="#000000" font-family="sans-serif" font-size="14" lengthAdjust="spacing" textLength="101" x="2484" y="648.4431">~ThreadPool()</text><ellipse cx="2475" cy="661.3899" fill="#84BE84" rx="3" ry="3" style="stroke:#038048;stroke-width:1.0;"/><text fill="#000000" font-family="sans-serif" font-size="14" lengthAdjust="spacing" textLength="698" x="2484" y="665.4577">result_of_t&lt;F(Args ... )&gt;&gt;execute ( F&amp;&amp; f, Args&amp;&amp; ... args) : requires std::invocable&lt;F , Args ...&gt;</text></g><!--class CallbackMessageType_t--><g id="elem_CallbackMessageType_t"><rect codeLine="65" fill="#F1F1F1" height="82.0293" id="CallbackMessageType_t" rx="2.5" ry="2.5" style="stroke:#181818;stroke-width:0.5;" width="197" x="2211.5" y="539.33"/><ellipse cx="2226.5" cy="555.33" fill="#EB937F" rx="11" ry="11" style="stroke:#181818;stroke-width:1.0;"/><path d="M2230.4375,561.83 L2223.625,561.83 L2223.625,549.4238 L2230.375,549.4238 L2230.375,551.2988 L2225.6719,551.2988 L2225.6719,554.2519 L2230.2031,554.2519 L2230.2031,556.1113 L2225.6719,556.1113 L2225.6719,559.955 L2230.4375,559.955 L2230.4375,561.83 Z " fill="#000000"/><text fill="#000000" font-family="sans-serif" font-size="14" lengthAdjust="spacing" textLength="165" x="2240.5" y="560.8979">CallbackMessageType_t</text><line style="stroke:#181818;stroke-width:0.5;" x1="2212.5" x2="2407.5" y1="571.33" y2="571.33"/><text fill="#000000" font-family="sans-serif" font-size="14" lengthAdjust="spacing" textLength="103" x="2217.5" y="589.4052">NOTIFICATION</text><text fill="#000000" font-family="sans-serif" font-size="14" lengthAdjust="spacing" textLength="56" x="2217.5" y="606.4198">RESULT</text><line style="stroke:#181818;stroke-width:0.5;" x1="2212.5" x2="2407.5" y1="613.3593" y2="613.3593"/></g><!--class ExecutionMode_t--><g id="elem_ExecutionMode_t"><rect codeLine="70" fill="#F1F1F1" height="82.0293" id="ExecutionMode_t" rx="2.5" ry="2.5" style="stroke:#181818;stroke-width:0.5;" width="153" x="2023.5" y="539.33"/><ellipse cx="2038.5" cy="555.33" fill="#EB937F" rx="11" ry="11" style="stroke:#181818;stroke-width:1.0;"/><path d="M2042.4375,561.83 L2035.625,561.83 L2035.625,549.4238 L2042.375,549.4238 L2042.375,551.2988 L2037.6719,551.2988 L2037.6719,554.2519 L2042.2031,554.2519 L2042.2031,556.1113 L2037.6719,556.1113 L2037.6719,559.955 L2042.4375,559.955 L2042.4375,561.83 Z " fill="#000000"/><text fill="#000000" font-family="sans-serif" font-size="14" lengthAdjust="spacing" textLength="121" x="2052.5" y="560.8979">ExecutionMode_t</text><line style="stroke:#181818;stroke-width:0.5;" x1="2024.5" x2="2175.5" y1="571.33" y2="571.33"/><text fill="#000000" font-family="sans-serif" font-size="14" lengthAdjust="spacing" textLength="42" x="2029.5" y="589.4052">Async</text><text fill="#000000" font-family="sans-serif" font-size="14" lengthAdjust="spacing" textLength="58" x="2029.5" y="606.4198">Blocking</text><line style="stroke:#181818;stroke-width:0.5;" x1="2024.5" x2="2175.5" y1="613.3593" y2="613.3593"/></g><!--class Receipt--><g id="elem_Receipt"><rect codeLine="77" fill="#F1F1F1" height="269.1904" id="Receipt" rx="2.5" ry="2.5" style="stroke:#181818;stroke-width:0.5;" width="367" x="1453.5" y="155.28"/><ellipse cx="1607.25" cy="171.28" fill="#ADD1B2" rx="11" ry="11" style="stroke:#181818;stroke-width:1.0;"/><path d="M1611.4063,176.8269 Q1609.7188,177.9987 1607.7813,177.9987 Q1605.3438,177.9987 1604.0625,176.3269 Q1602.7969,174.655 1602.7969,171.5769 Q1602.7969,168.6237 1604.0313,166.8894 Q1605.2656,165.155 1607.7813,165.155 Q1608.6875,165.155 1609.5625,165.3894 Q1610.4531,165.6237 1611.2188,166.1706 L1610.5313,167.8425 Q1609.0938,167.0456 1607.7813,167.0456 Q1606.3594,167.0456 1605.6406,168.1081 Q1604.9375,169.155 1604.9375,171.5769 Q1604.9375,176.1237 1607.7813,176.1237 Q1609.0469,176.1237 1610.7344,175.1394 L1611.4063,176.8269 Z " fill="#000000"/><text fill="#000000" font-family="sans-serif" font-size="14" lengthAdjust="spacing" textLength="51" x="1627.75" y="176.8479">Receipt</text><line style="stroke:#181818;stroke-width:0.5;" x1="1454.5" x2="1819.5" y1="187.28" y2="187.28"/><rect fill="none" height="6" style="stroke:#C82930;stroke-width:1.0;" width="6" x="1461.5" y="198.2873"/><text fill="#000000" font-family="sans-serif" font-size="14" lengthAdjust="spacing" textLength="189" x="1473.5" y="205.3552">mEndTime : ChronoTime_t</text><rect fill="none" height="6" style="stroke:#C82930;stroke-width:1.0;" width="6" x="1461.5" y="215.302"/><text fill="#000000" font-family="sans-serif" font-size="14" lengthAdjust="spacing" textLength="198" x="1473.5" y="222.3698">mStartTime : ChronoTime_t</text><rect fill="none" height="6" style="stroke:#C82930;stroke-width:1.0;" width="6" x="1461.5" y="232.3166"/><text fill="#000000" font-family="sans-serif" font-size="14" lengthAdjust="spacing" textLength="138" x="1473.5" y="239.3845">mStatus : Status_t</text><rect fill="none" height="6" style="stroke:#C82930;stroke-width:1.0;" width="6" x="1461.5" y="249.3313"/><text fill="#000000" font-family="sans-serif" font-size="14" lengthAdjust="spacing" textLength="231" x="1473.5" y="256.3991">mMode : const ExecutionMode_t</text><rect fill="none" height="6" style="stroke:#C82930;stroke-width:1.0;" width="6" x="1461.5" y="266.3459"/><text fill="#000000" font-family="sans-serif" font-size="14" lengthAdjust="spacing" textLength="182" x="1473.5" y="273.4138">mTaskId : const TaskId_t</text><line style="stroke:#181818;stroke-width:0.5;" x1="1454.5" x2="1819.5" y1="280.3532" y2="280.3532"/><ellipse cx="1464.5" cy="294.3606" fill="#84BE84" rx="3" ry="3" style="stroke:#038048;stroke-width:1.0;"/><text fill="#000000" font-family="sans-serif" font-size="14" lengthAdjust="spacing" textLength="228" x="1473.5" y="298.4284">Receipt(ExecutionMode_t mode)</text><ellipse cx="1464.5" cy="311.3752" fill="#84BE84" rx="3" ry="3" style="stroke:#038048;stroke-width:1.0;"/><text fill="#000000" font-family="sans-serif" font-size="14" lengthAdjust="spacing" textLength="284" x="1473.5" y="315.4431">getEndTime() : ChronoTime_t&amp; {query}</text><ellipse cx="1464.5" cy="328.3899" fill="#84BE84" rx="3" ry="3" style="stroke:#038048;stroke-width:1.0;"/><text fill="#000000" font-family="sans-serif" font-size="14" lengthAdjust="spacing" textLength="293" x="1473.5" y="332.4577">getStartTime() : ChronoTime_t&amp; {query}</text><ellipse cx="1464.5" cy="345.4045" fill="#84BE84" rx="3" ry="3" style="stroke:#038048;stroke-width:1.0;"/><text fill="#000000" font-family="sans-serif" font-size="14" lengthAdjust="spacing" textLength="341" x="1473.5" y="349.4724">getExecutionMode() : ExecutionMode_t {query}</text><ellipse cx="1464.5" cy="362.4192" fill="#84BE84" rx="3" ry="3" style="stroke:#038048;stroke-width:1.0;"/><text fill="#000000" font-family="sans-serif" font-size="14" lengthAdjust="spacing" textLength="223" x="1473.5" y="366.487">getTaskId() : TaskId_t {query}</text><ellipse cx="1464.5" cy="379.4338" fill="#84BE84" rx="3" ry="3" style="stroke:#038048;stroke-width:1.0;"/><text fill="#000000" font-family="sans-serif" font-size="14" lengthAdjust="spacing" textLength="179" x="1473.5" y="383.5017">getStatus() : int {query}</text><ellipse cx="1464.5" cy="396.4485" fill="#84BE84" rx="3" ry="3" style="stroke:#038048;stroke-width:1.0;"/><text fill="#000000" font-family="sans-serif" font-size="14" lengthAdjust="spacing" textLength="139" x="1473.5" y="400.5163">setEndTime() : void</text><ellipse cx="1464.5" cy="413.4631" fill="#84BE84" rx="3" ry="3" style="stroke:#038048;stroke-width:1.0;"/><text fill="#000000" font-family="sans-serif" font-size="14" lengthAdjust="spacing" textLength="238" x="1473.5" y="417.531">setStatus(Status_t status) : void</text></g><!--class Task--><g id="elem_Task"><rect codeLine="93" fill="#F1F1F1" height="65.0146" id="Task" rx="2.5" ry="2.5" style="stroke:#181818;stroke-width:0.5;" width="362" x="848" y="257.28"/><ellipse cx="1008.25" cy="273.28" fill="#ADD1B2" rx="11" ry="11" style="stroke:#181818;stroke-width:1.0;"/><path d="M1012.4063,278.8269 Q1010.7188,279.9988 1008.7813,279.9988 Q1006.3438,279.9988 1005.0625,278.3269 Q1003.7969,276.655 1003.7969,273.5769 Q1003.7969,270.6238 1005.0313,268.8894 Q1006.2656,267.155 1008.7813,267.155 Q1009.6875,267.155 1010.5625,267.3894 Q1011.4531,267.6238 1012.2188,268.1706 L1011.5313,269.8425 Q1010.0938,269.0456 1008.7813,269.0456 Q1007.3594,269.0456 1006.6406,270.1081 Q1005.9375,271.155 1005.9375,273.5769 Q1005.9375,278.1238 1008.7813,278.1238 Q1010.0469,278.1238 1011.7344,277.1394 L1012.4063,278.8269 Z " fill="#000000"/><text fill="#000000" font-family="sans-serif" font-size="14" lengthAdjust="spacing" textLength="33" x="1028.75" y="278.8479">Task</text><line style="stroke:#181818;stroke-width:0.5;" x1="849" x2="1209" y1="289.28" y2="289.28"/><rect fill="none" height="6" style="stroke:#C82930;stroke-width:1.0;" width="6" x="856" y="300.2873"/><text fill="#000000" font-family="sans-serif" font-size="14" lengthAdjust="spacing" textLength="336" x="868" y="307.3552">mTaskConfiguration : std::vector&lt;TaskConfig&gt;</text><line style="stroke:#181818;stroke-width:0.5;" x1="849" x2="1209" y1="314.2946" y2="314.2946"/></g><!--class Receipt::Status_t--><g id="elem_Receipt::Status_t"><rect codeLine="97" fill="#F1F1F1" height="82.0293" id="Receipt::Status_t" rx="2.5" ry="2.5" style="stroke:#181818;stroke-width:0.5;" width="157" x="1253.5" y="248.77"/><ellipse cx="1268.5" cy="264.77" fill="#EB937F" rx="11" ry="11" style="stroke:#181818;stroke-width:1.0;"/><path d="M1272.4375,271.27 L1265.625,271.27 L1265.625,258.8638 L1272.375,258.8638 L1272.375,260.7388 L1267.6719,260.7388 L1267.6719,263.6919 L1272.2031,263.6919 L1272.2031,265.5513 L1267.6719,265.5513 L1267.6719,269.395 L1272.4375,269.395 L1272.4375,271.27 Z " fill="#000000"/><text fill="#000000" font-family="sans-serif" font-size="14" lengthAdjust="spacing" textLength="125" x="1282.5" y="270.3379">Receipt::Status_t</text><line style="stroke:#181818;stroke-width:0.5;" x1="1254.5" x2="1409.5" y1="280.77" y2="280.77"/><text fill="#000000" font-family="sans-serif" font-size="14" lengthAdjust="spacing" textLength="31" x="1259.5" y="298.8452">FAIL</text><text fill="#000000" font-family="sans-serif" font-size="14" lengthAdjust="spacing" textLength="21" x="1259.5" y="315.8598">OK</text><line style="stroke:#181818;stroke-width:0.5;" x1="1254.5" x2="1409.5" y1="322.7993" y2="322.7993"/></g><!--class TaskName--><g id="elem_TaskName"><rect codeLine="102" fill="#F1F1F1" height="99.0439" id="TaskName" rx="2.5" ry="2.5" style="stroke:#181818;stroke-width:0.5;" width="104" x="1863" y="240.26"/><ellipse cx="1878" cy="256.26" fill="#EB937F" rx="11" ry="11" style="stroke:#181818;stroke-width:1.0;"/><path d="M1881.9375,262.76 L1875.125,262.76 L1875.125,250.3538 L1881.875,250.3538 L1881.875,252.2288 L1877.1719,252.2288 L1877.1719,255.1819 L1881.7031,255.1819 L1881.7031,257.0413 L1877.1719,257.0413 L1877.1719,260.885 L1881.9375,260.885 L1881.9375,262.76 Z " fill="#000000"/><text fill="#000000" font-family="sans-serif" font-size="14" lengthAdjust="spacing" textLength="72" x="1892" y="261.8279">TaskName</text><line style="stroke:#181818;stroke-width:0.5;" x1="1864" x2="1966" y1="272.26" y2="272.26"/><text fill="#000000" font-family="sans-serif" font-size="14" lengthAdjust="spacing" textLength="82" x="1869" y="290.3352">BlockMe_3s</text><text fill="#000000" font-family="sans-serif" font-size="14" lengthAdjust="spacing" textLength="11" x="1869" y="307.3498">Pi</text><text fill="#000000" font-family="sans-serif" font-size="14" lengthAdjust="spacing" textLength="75" x="1869" y="324.3645">PingMe_5x</text><line style="stroke:#181818;stroke-width:0.5;" x1="1864" x2="1966" y1="331.3039" y2="331.3039"/></g><!--class Task::TaskConfig--><g id="elem_Task::TaskConfig"><rect codeLine="108" fill="#F1F1F1" height="48" id="Task::TaskConfig" rx="2.5" ry="2.5" style="stroke:#181818;stroke-width:0.5;" width="155" x="1254.5" y="556.34"/><ellipse cx="1269.5" cy="572.34" fill="#ADD1B2" rx="11" ry="11" style="stroke:#181818;stroke-width:1.0;"/><path d="M1273.6563,577.8869 Q1271.9688,579.0588 1270.0313,579.0588 Q1267.5938,579.0588 1266.3125,577.3869 Q1265.0469,575.715 1265.0469,572.6369 Q1265.0469,569.6838 1266.2813,567.9494 Q1267.5156,566.215 1270.0313,566.215 Q1270.9375,566.215 1271.8125,566.4494 Q1272.7031,566.6838 1273.4688,567.2306 L1272.7813,568.9025 Q1271.3438,568.1056 1270.0313,568.1056 Q1268.6094,568.1056 1267.8906,569.1681 Q1267.1875,570.215 1267.1875,572.6369 Q1267.1875,577.1838 1270.0313,577.1838 Q1271.2969,577.1838 1272.9844,576.1994 L1273.6563,577.8869 Z " fill="#000000"/><text fill="#000000" font-family="sans-serif" font-size="14" lengthAdjust="spacing" textLength="123" x="1283.5" y="577.9079">Task::TaskConfig</text><line style="stroke:#181818;stroke-width:0.5;" x1="1255.5" x2="1408.5" y1="588.34" y2="588.34"/><line style="stroke:#181818;stroke-width:0.5;" x1="1255.5" x2="1408.5" y1="596.34" y2="596.34"/></g><!--class scoped_logger--><g id="elem_scoped_logger"><rect codeLine="8" fill="#F1F1F1" height="116.0586" id="scoped_logger" rx="2.5" ry="2.5" style="stroke:#181818;stroke-width:0.5;" width="618" x="3244" y="231.75"/><ellipse cx="3497.25" cy="247.75" fill="#ADD1B2" rx="11" ry="11" style="stroke:#181818;stroke-width:1.0;"/><path d="M3501.4063,253.2969 Q3499.7188,254.4688 3497.7813,254.4688 Q3495.3438,254.4688 3494.0625,252.7969 Q3492.7969,251.125 3492.7969,248.0469 Q3492.7969,245.0938 3494.0313,243.3594 Q3495.2656,241.625 3497.7813,241.625 Q3498.6875,241.625 3499.5625,241.8594 Q3500.4531,242.0938 3501.2188,242.6406 L3500.5313,244.3125 Q3499.0938,243.5156 3497.7813,243.5156 Q3496.3594,243.5156 3495.6406,244.5781 Q3494.9375,245.625 3494.9375,248.0469 Q3494.9375,252.5938 3497.7813,252.5938 Q3499.0469,252.5938 3500.7344,251.6094 L3501.4063,253.2969 Z " fill="#000000"/><text fill="#000000" font-family="sans-serif" font-size="14" lengthAdjust="spacing" textLength="103" x="3517.75" y="253.3179">scoped_logger</text><line style="stroke:#181818;stroke-width:0.5;" x1="3245" x2="3861" y1="263.75" y2="263.75"/><rect fill="none" height="6" style="stroke:#C82930;stroke-width:1.0;" width="6" x="3252" y="274.7573"/><text fill="#000000" font-family="sans-serif" font-size="14" lengthAdjust="spacing" textLength="166" x="3264" y="281.8252">_ss : std::stringstream</text><line style="stroke:#181818;stroke-width:0.5;" x1="3245" x2="3861" y1="288.7646" y2="288.7646"/><ellipse cx="3255" cy="302.772" fill="#84BE84" rx="3" ry="3" style="stroke:#038048;stroke-width:1.0;"/><text fill="#000000" font-family="sans-serif" font-size="14" lengthAdjust="spacing" textLength="592" x="3264" y="306.8398">scoped_logger(const std::string&amp; className, const char* funcName, unsigned line)</text><ellipse cx="3255" cy="319.7866" fill="#84BE84" rx="3" ry="3" style="stroke:#038048;stroke-width:1.0;"/><text fill="#000000" font-family="sans-serif" font-size="14" lengthAdjust="spacing" textLength="126" x="3264" y="323.8545">~scoped_logger()</text><ellipse cx="3255" cy="336.8013" fill="#84BE84" rx="3" ry="3" style="stroke:#038048;stroke-width:1.0;"/><text fill="#000000" font-family="sans-serif" font-size="14" lengthAdjust="spacing" textLength="212" x="3264" y="340.8691">stream() : std::stringstream&amp;</text></g><!--reverse link Receipt to ExecutionMode_t--><g id="link_Receipt_ExecutionMode_t"><path codeLine="124" d="M1841.01,426.42 C1842.67,427.06 1844.34,427.68 1846,428.28 C1903.61,449.25 1928.81,415.62 1983,444.28 C2023.58,465.75 2056.35,507.54 2076.77,538.97 " fill="none" id="Receipt-backto-ExecutionMode_t" style="stroke:#181818;stroke-width:1.0;"/><polygon fill="#181818" points="1829.26,421.26,1833.3247,427.2164,1840.3862,425.7553,1836.3215,419.7989,1829.26,421.26" style="stroke:#181818;stroke-width:1.0;"/></g><!--reverse link ThreadPoolTest to ThreadPool--><g id="link_ThreadPoolTest_ThreadPool"><path codeLine="127" d="M2778.17,370.22 C2786.5,406.64 2796.42,450.03 2805.07,487.81 " fill="none" id="ThreadPoolTest-backto-ThreadPool" style="stroke:#181818;stroke-width:1.0;"/><polygon fill="#181818" points="2775.06,357.62,2772.4994,364.3612,2777.7371,369.3176,2780.2977,362.5764,2775.06,357.62" style="stroke:#181818;stroke-width:1.0;"/></g><!--reverse link Receipt to Receipt--><g id="link_Receipt_Receipt"><path codeLine="136" d="M1649.91,135.56 C1651.17,66.14 1646.87,6 1637,6 C1620.01,6 1619.52,131.5 1635.51,225.37 " fill="none" id="Receipt-backto-Receipt" style="stroke:#181818;stroke-width:1.0;"/><ellipse cx="1649.728" cy="142.4425" fill="#FFFFFF" rx="8" ry="8" style="stroke:#181818;stroke-width:1.0;"/><line style="stroke:#181818;stroke-width:1.0;" x1="1649.9261" x2="1649.53" y1="134.4449" y2="150.44"/><line style="stroke:#181818;stroke-width:1.0;" x1="1657.7256" x2="1641.7305" y1="142.6405" y2="142.2444"/></g><!--reverse link Task to Task--><g id="link_Task_Task"><path codeLine="139" d="M1038.62,237.82 C1045.48,177.71 1042.27,108 1029,108 C1012.25,108 1011.53,229.99 1026.84,293.59 " fill="none" id="Task-backto-Task" style="stroke:#181818;stroke-width:1.0;"/><ellipse cx="1037.5838" cy="244.7184" fill="#FFFFFF" rx="8" ry="8" style="stroke:#181818;stroke-width:1.0;"/><line style="stroke:#181818;stroke-width:1.0;" x1="1038.6277" x2="1036.54" y1="236.7868" y2="252.65"/><line style="stroke:#181818;stroke-width:1.0;" x1="1045.5154" x2="1029.6522" y1="245.7622" y2="243.6746"/></g><!--SRC=[nLRVR-8u47ukVuMbaoXTjlHXz-u18IIEAnAwBQrAzbuZuvZWQsApjiEsMtN_zfqP9-G7LFTuF11dvfkPRyRZSMuksVtcNocyOvStlPx8k7FC2RENIPoPD9MMlVOkXYt9G1ZjF7C-6O-TjqgdVKQ6AvxBZonenOxR3snRQ16aXNOgrJ9XcTBo2bp-RFi4qNKCiSTDl_0lUOxnQJ6uEgVkzzvwlPw6A6xFXMGYJm9hlW405pwGOykvqTwQBEERJ4OxC4qGTJ5yhO1lB9L-xRal78LIshFNRuMqBsyTdFFSUi8SZ4fEb6RVq06x4oeOvC6QWogfTftxbV5ggmJtokXpzTODFHOOmnN0zu_FSOCpXfQwo5b8YY8jjVBmU2mq_Ayn3tgQVO3NTVGG4mq2vOYxfqYMeelVrj9_RIO9ebVahSGR8nrYruNoiWsA9BT_cU_w7TDAVTOQwLLiQFiUZCaQdF9QMlL9eHNK8jvxEwcLq_ynWswDWOvhLhdEW78QreA1KpyaRAudoTmKsbyXv1hF6BR118CCI3RysR0Bg1otk5MW3Jm8RAKhCX-RRUmdYy7CfewDHYDsDPtAPoaABzc0BVfzjlt8K0ahL7DOOcfMVYiKk0W5L_fW11wmoO85E8AdWG8Sm4GXrN-uLGYgjabKYlXGQeB17GH_ha0vlWHvoECuB0umluoTq3gKPtgksCBakT5KM3eKSvvb6owUxgHpF9NHonxhItLVtKVBnN8-YvRtAtn_l5r__H9LFKZMjrGRu7ndagFTpBreWOi_CoEUuAIUum6nTFDeFKeXrRxqC2pV1bt_EJpAhRpLIQHohDvyPuqs-1BxQflXHB-Z7S9uAssfAvlwVcFI4V3ewB-XBQe4FobERK0KSHYDowbKSyCPiqp8GLXsBT4RACCyxCGeEuFiZfZAJIEfyyCThfXsRQgJZVBIgg9B0xfmxqmcY1XsCf21dj-gjB0qgJiDM-kdhTOgMs0yFaOaXulPyWi-x_zkeT4BNW41H8rt9-DF3jyULFZNAOX-VpwbEXxN9CW1TIjUgF2xkMHBlPDMUQwXRwtCA0ktK_lmkH0mipIrCWq9dcBeEXvHpu-gJlzmVHskwL4uawFkNbPcS0UDEhE-jgNXsL3tZgnN08HF3TFyiZb3OtXqrPBNTU-rxMXlkqRTAYA5Nm00]--></g></svg>