<?xml version="1.0" encoding="us-ascii" standalone="no"?><svg xmlns="http://www.w3.org/2000/svg" xmlns:xlink="http://www.w3.org/1999/xlink" contentStyleType="text/css" height="317px" preserveAspectRatio="none" style="width:1607px;height:317px;background:#FFFFFF;" version="1.1" viewBox="0 0 1607 317" width="1607px" zoomAndPan="magnify"><defs/><g><!--cluster cmder--><g id="cluster_cmder"><path d="M798.5,6 L847.5,6 A3.75,3.75 0 0 1 850,8.5 L857,29.0146 L1597.5,29.0146 A2.5,2.5 0 0 1 1600,31.5146 L1600,307.62 A2.5,2.5 0 0 1 1597.5,310.12 L798.5,310.12 A2.5,2.5 0 0 1 796,307.62 L796,8.5 A2.5,2.5 0 0 1 798.5,6 " fill="none" style="stroke:#000000;stroke-width:1.5;"/><line style="stroke:#000000;stroke-width:1.5;" x1="796" x2="857" y1="29.0146" y2="29.0146"/><text fill="#000000" font-family="sans-serif" font-size="14" font-weight="bold" lengthAdjust="spacing" textLength="48" x="800" y="22.0752">cmder</text></g><!--cluster tools--><g id="cluster_tools"><path d="M822.5,50 L861.5,50 A3.75,3.75 0 0 1 864,52.5 L871,73.0146 L1573.5,73.0146 A2.5,2.5 0 0 1 1576,75.5146 L1576,283.62 A2.5,2.5 0 0 1 1573.5,286.12 L822.5,286.12 A2.5,2.5 0 0 1 820,283.62 L820,52.5 A2.5,2.5 0 0 1 822.5,50 " fill="none" style="stroke:#000000;stroke-width:1.5;"/><line style="stroke:#000000;stroke-width:1.5;" x1="820" x2="871" y1="73.0146" y2="73.0146"/><text fill="#000000" font-family="sans-serif" font-size="14" font-weight="bold" lengthAdjust="spacing" textLength="38" x="824" y="66.0752">tools</text></g><!--class ThreadPool--><g id="elem_ThreadPool"><rect codeLine="23" fill="#F1F1F1" height="184.1172" id="ThreadPool" rx="2.5" ry="2.5" style="stroke:#181818;stroke-width:0.5;" width="724" x="836" y="86"/><ellipse cx="1154.75" cy="102" fill="#ADD1B2" rx="11" ry="11" style="stroke:#181818;stroke-width:1.0;"/><path d="M1158.9063,107.5469 Q1157.2188,108.7188 1155.2813,108.7188 Q1152.8438,108.7188 1151.5625,107.0469 Q1150.2969,105.375 1150.2969,102.2969 Q1150.2969,99.3438 1151.5313,97.6094 Q1152.7656,95.875 1155.2813,95.875 Q1156.1875,95.875 1157.0625,96.1094 Q1157.9531,96.3438 1158.7188,96.8906 L1158.0313,98.5625 Q1156.5938,97.7656 1155.2813,97.7656 Q1153.8594,97.7656 1153.1406,98.8281 Q1152.4375,99.875 1152.4375,102.2969 Q1152.4375,106.8438 1155.2813,106.8438 Q1156.5469,106.8438 1158.2344,105.8594 L1158.9063,107.5469 Z " fill="#000000"/><text fill="#000000" font-family="sans-serif" font-size="14" lengthAdjust="spacing" textLength="78" x="1175.25" y="107.5679">ThreadPool</text><line style="stroke:#181818;stroke-width:0.5;" x1="837" x2="1559" y1="118" y2="118"/><rect fill="none" height="6" style="stroke:#C82930;stroke-width:1.0;" width="6" x="844" y="129.0073"/><text fill="#000000" font-family="sans-serif" font-size="14" lengthAdjust="spacing" textLength="171" x="856" y="136.0752">mStopThreadPool : bool</text><rect fill="none" height="6" style="stroke:#C82930;stroke-width:1.0;" width="6" x="844" y="146.022"/><text fill="#000000" font-family="sans-serif" font-size="14" lengthAdjust="spacing" textLength="312" x="856" y="153.0898">mConditionVariable : std::condition_variable</text><rect fill="none" height="6" style="stroke:#C82930;stroke-width:1.0;" width="6" x="844" y="163.0366"/><text fill="#000000" font-family="sans-serif" font-size="14" lengthAdjust="spacing" textLength="152" x="856" y="170.1045">mMutex : std::mutex</text><rect fill="none" height="6" style="stroke:#C82930;stroke-width:1.0;" width="6" x="844" y="180.0513"/><text fill="#000000" font-family="sans-serif" font-size="14" lengthAdjust="spacing" textLength="268" x="856" y="187.1191">mThreads : std::vector&lt;std::thread&gt;</text><line style="stroke:#181818;stroke-width:0.5;" x1="837" x2="1559" y1="194.0586" y2="194.0586"/><ellipse cx="847" cy="208.0659" fill="#84BE84" rx="3" ry="3" style="stroke:#038048;stroke-width:1.0;"/><text fill="#000000" font-family="sans-serif" font-size="14" lengthAdjust="spacing" textLength="226" x="856" y="212.1338">ThreadPool(size_t threadCount)</text><rect fill="#F24D5C" height="6" style="stroke:#C82930;stroke-width:1.0;" width="6" x="844" y="222.0806"/><text fill="#000000" font-family="sans-serif" font-size="14" lengthAdjust="spacing" textLength="109" x="856" y="229.1484">function&lt;void()</text><ellipse cx="847" cy="242.0952" fill="#84BE84" rx="3" ry="3" style="stroke:#038048;stroke-width:1.0;"/><text fill="#000000" font-family="sans-serif" font-size="14" lengthAdjust="spacing" textLength="101" x="856" y="246.1631">~ThreadPool()</text><ellipse cx="847" cy="259.1099" fill="#84BE84" rx="3" ry="3" style="stroke:#038048;stroke-width:1.0;"/><text fill="#000000" font-family="sans-serif" font-size="14" lengthAdjust="spacing" textLength="698" x="856" y="263.1777">result_of_t&lt;F(Args ... )&gt;&gt;execute ( F&amp;&amp; f, Args&amp;&amp; ... args) : requires std::invocable&lt;F , Args ...&gt;</text></g><!--class greeter--><g id="elem_greeter"><rect codeLine="8" fill="#F1F1F1" height="65.0146" id="greeter" rx="2.5" ry="2.5" style="stroke:#181818;stroke-width:0.5;" width="120" x="7" y="145.55"/><ellipse cx="38.65" cy="161.55" fill="#ADD1B2" rx="11" ry="11" style="stroke:#181818;stroke-width:1.0;"/><path d="M42.8063,167.0969 Q41.1188,168.2688 39.1813,168.2688 Q36.7438,168.2688 35.4625,166.5969 Q34.1969,164.925 34.1969,161.8469 Q34.1969,158.8938 35.4313,157.1594 Q36.6656,155.425 39.1813,155.425 Q40.0875,155.425 40.9625,155.6594 Q41.8531,155.8938 42.6188,156.4406 L41.9313,158.1125 Q40.4938,157.3156 39.1813,157.3156 Q37.7594,157.3156 37.0406,158.3781 Q36.3375,159.425 36.3375,161.8469 Q36.3375,166.3938 39.1813,166.3938 Q40.4469,166.3938 42.1344,165.4094 L42.8063,167.0969 Z " fill="#000000"/><text fill="#000000" font-family="sans-serif" font-size="14" lengthAdjust="spacing" textLength="51" x="56.35" y="167.1179">greeter</text><line style="stroke:#181818;stroke-width:0.5;" x1="8" x2="126" y1="177.55" y2="177.55"/><line style="stroke:#181818;stroke-width:0.5;" x1="8" x2="126" y1="185.55" y2="185.55"/><ellipse cx="18" cy="199.5573" fill="#84BE84" rx="3" ry="3" style="stroke:#038048;stroke-width:1.0;"/><text fill="#000000" font-family="sans-serif" font-size="14" lengthAdjust="spacing" text-decoration="underline" textLength="94" x="27" y="203.6252">greet() : void</text></g><!--class scoped_logger--><g id="elem_scoped_logger"><rect codeLine="13" fill="#F1F1F1" height="116.0586" id="scoped_logger" rx="2.5" ry="2.5" style="stroke:#181818;stroke-width:0.5;" width="618" x="162" y="120.03"/><ellipse cx="415.25" cy="136.03" fill="#ADD1B2" rx="11" ry="11" style="stroke:#181818;stroke-width:1.0;"/><path d="M419.4063,141.5769 Q417.7188,142.7488 415.7813,142.7488 Q413.3438,142.7488 412.0625,141.0769 Q410.7969,139.405 410.7969,136.3269 Q410.7969,133.3738 412.0313,131.6394 Q413.2656,129.905 415.7813,129.905 Q416.6875,129.905 417.5625,130.1394 Q418.4531,130.3738 419.2188,130.9206 L418.5313,132.5925 Q417.0938,131.7956 415.7813,131.7956 Q414.3594,131.7956 413.6406,132.8581 Q412.9375,133.905 412.9375,136.3269 Q412.9375,140.8738 415.7813,140.8738 Q417.0469,140.8738 418.7344,139.8894 L419.4063,141.5769 Z " fill="#000000"/><text fill="#000000" font-family="sans-serif" font-size="14" lengthAdjust="spacing" textLength="103" x="435.75" y="141.5979">scoped_logger</text><line style="stroke:#181818;stroke-width:0.5;" x1="163" x2="779" y1="152.03" y2="152.03"/><rect fill="none" height="6" style="stroke:#C82930;stroke-width:1.0;" width="6" x="170" y="163.0373"/><text fill="#000000" font-family="sans-serif" font-size="14" lengthAdjust="spacing" textLength="166" x="182" y="170.1052">_ss : std::stringstream</text><line style="stroke:#181818;stroke-width:0.5;" x1="163" x2="779" y1="177.0446" y2="177.0446"/><ellipse cx="173" cy="191.052" fill="#84BE84" rx="3" ry="3" style="stroke:#038048;stroke-width:1.0;"/><text fill="#000000" font-family="sans-serif" font-size="14" lengthAdjust="spacing" textLength="592" x="182" y="195.1198">scoped_logger(const std::string&amp; className, const char* funcName, unsigned line)</text><ellipse cx="173" cy="208.0666" fill="#84BE84" rx="3" ry="3" style="stroke:#038048;stroke-width:1.0;"/><text fill="#000000" font-family="sans-serif" font-size="14" lengthAdjust="spacing" textLength="126" x="182" y="212.1345">~scoped_logger()</text><ellipse cx="173" cy="225.0813" fill="#84BE84" rx="3" ry="3" style="stroke:#038048;stroke-width:1.0;"/><text fill="#000000" font-family="sans-serif" font-size="14" lengthAdjust="spacing" textLength="212" x="182" y="229.1491">stream() : std::stringstream&amp;</text></g><!--SRC=[RL9DQy9043sRNp4dZVNh7aGGGUYXjj3IQrWtOzoIxDhTYKX5VtjdTqqRQKF8Jjvxyxap6y3pzWCbEHZCaaHMmZaeBIAXXNFI6vqT2LBo4i5q21aSZIgIIzAgdJG7BFBAbENDvmv9fT6Em56HPOwiqcKVWkD6r3Y6oCgzi0-mQxICQAETAZKMK2cDGmvvlO_9q2Jdt5atBdzHr3v_C4AjV-X-g5np5dSG4a7MHQpw5o9ZAkUXNcpmRS-EnGkZ0UoDVe7KgI_C2IWWAzDe6dh9nBT2okYv7rOQiD6runTLzIkPGoTy1bi-WjYYQohApIwd-JfTsjB1T3g5uMA19vGD8QImxlTXDmPFikLfmQPls-9depX4x5_fev5YM-5y3L7knOjOmiheGlbItuLLNjHEJRP4VhmnqU69avzQKUr_8Xxx-BcJ8o-LiVDWn_7uX9U4Nty3_Cm6yAZtQ1K9pMEtM0cVpktL8MvZr2nBNhqoKFzhl6Y3ZdXTJ6UNasy0]--></g></svg>