<?xml version="1.0" encoding="us-ascii" standalone="no"?><svg xmlns="http://www.w3.org/2000/svg" xmlns:xlink="http://www.w3.org/1999/xlink" contentStyleType="text/css" height="526px" preserveAspectRatio="none" style="width:1607px;height:526px;background:#FFFFFF;" version="1.1" viewBox="0 0 1607 526" width="1607px" zoomAndPan="magnify"><defs/><g><!--cluster cmder--><g id="cluster_cmder"><path d="M798.5,6 L847.5,6 A3.75,3.75 0 0 1 850,8.5 L857,29.0146 L1597.5,29.0146 A2.5,2.5 0 0 1 1600,31.5146 L1600,516.69 A2.5,2.5 0 0 1 1597.5,519.19 L798.5,519.19 A2.5,2.5 0 0 1 796,516.69 L796,8.5 A2.5,2.5 0 0 1 798.5,6 " fill="none" style="stroke:#000000;stroke-width:1.5;"/><line style="stroke:#000000;stroke-width:1.5;" x1="796" x2="857" y1="29.0146" y2="29.0146"/><text fill="#000000" font-family="sans-serif" font-size="14" font-weight="bold" lengthAdjust="spacing" textLength="48" x="800" y="22.0752">cmder</text></g><!--cluster tst--><g id="cluster_tst"><path d="M1011.5,50 L1032.5,50 A3.75,3.75 0 0 1 1035,52.5 L1042,73.0146 L1384.5,73.0146 A2.5,2.5 0 0 1 1387,75.5146 L1387,232.57 A2.5,2.5 0 0 1 1384.5,235.07 L1011.5,235.07 A2.5,2.5 0 0 1 1009,232.57 L1009,52.5 A2.5,2.5 0 0 1 1011.5,50 " fill="none" style="stroke:#000000;stroke-width:1.5;"/><line style="stroke:#000000;stroke-width:1.5;" x1="1009" x2="1042" y1="73.0146" y2="73.0146"/><text fill="#000000" font-family="sans-serif" font-size="14" font-weight="bold" lengthAdjust="spacing" textLength="20" x="1013" y="66.0752">tst</text></g><!--cluster tools--><g id="cluster_tools"><path d="M822.5,259.07 L861.5,259.07 A3.75,3.75 0 0 1 864,261.57 L871,282.0846 L1573.5,282.0846 A2.5,2.5 0 0 1 1576,284.5846 L1576,492.69 A2.5,2.5 0 0 1 1573.5,495.19 L822.5,495.19 A2.5,2.5 0 0 1 820,492.69 L820,261.57 A2.5,2.5 0 0 1 822.5,259.07 " fill="none" style="stroke:#000000;stroke-width:1.5;"/><line style="stroke:#000000;stroke-width:1.5;" x1="820" x2="871" y1="282.0846" y2="282.0846"/><text fill="#000000" font-family="sans-serif" font-size="14" font-weight="bold" lengthAdjust="spacing" textLength="38" x="824" y="275.1452">tools</text></g><!--class ThreadPoolTest--><g id="elem_ThreadPoolTest"><rect codeLine="23" fill="#F1F1F1" height="133.0732" id="ThreadPoolTest" rx="2.5" ry="2.5" style="stroke:#181818;stroke-width:0.5;" width="345" x="1025.5" y="86"/><ellipse cx="1139.25" cy="102" fill="#ADD1B2" rx="11" ry="11" style="stroke:#181818;stroke-width:1.0;"/><path d="M1143.4063,107.5469 Q1141.7188,108.7188 1139.7813,108.7188 Q1137.3438,108.7188 1136.0625,107.0469 Q1134.7969,105.375 1134.7969,102.2969 Q1134.7969,99.3438 1136.0313,97.6094 Q1137.2656,95.875 1139.7813,95.875 Q1140.6875,95.875 1141.5625,96.1094 Q1142.4531,96.3438 1143.2188,96.8906 L1142.5313,98.5625 Q1141.0938,97.7656 1139.7813,97.7656 Q1138.3594,97.7656 1137.6406,98.8281 Q1136.9375,99.875 1136.9375,102.2969 Q1136.9375,106.8438 1139.7813,106.8438 Q1141.0469,106.8438 1142.7344,105.8594 L1143.4063,107.5469 Z " fill="#000000"/><text fill="#000000" font-family="sans-serif" font-size="14" lengthAdjust="spacing" textLength="109" x="1159.75" y="107.5679">ThreadPoolTest</text><line style="stroke:#181818;stroke-width:0.5;" x1="1026.5" x2="1369.5" y1="118" y2="118"/><polygon fill="none" points="1036.5,127.0073,1040.5,131.0073,1036.5,135.0073,1032.5,131.0073" style="stroke:#B38D22;stroke-width:1.0;"/><text fill="#000000" font-family="sans-serif" font-size="14" lengthAdjust="spacing" textLength="319" x="1045.5" y="136.0752">mThreadPool : std::unique_ptr&lt;ThreadPool&gt;</text><line style="stroke:#181818;stroke-width:0.5;" x1="1026.5" x2="1369.5" y1="143.0146" y2="143.0146"/><polygon fill="#FFFF44" points="1036.5,152.022,1040.5,156.022,1036.5,160.022,1032.5,156.022" style="stroke:#B38D22;stroke-width:1.0;"/><text fill="#000000" font-family="sans-serif" font-size="14" lengthAdjust="spacing" textLength="100" x="1045.5" y="161.0898">SetUp() : void</text><polygon fill="#FFFF44" points="1036.5,169.0366,1040.5,173.0366,1036.5,177.0366,1032.5,173.0366" style="stroke:#B38D22;stroke-width:1.0;"/><text fill="#000000" font-family="sans-serif" font-size="14" lengthAdjust="spacing" text-decoration="underline" textLength="167" x="1045.5" y="178.1045">SetUpTestSuite() : void</text><polygon fill="#FFFF44" points="1036.5,186.0513,1040.5,190.0513,1036.5,194.0513,1032.5,190.0513" style="stroke:#B38D22;stroke-width:1.0;"/><text fill="#000000" font-family="sans-serif" font-size="14" lengthAdjust="spacing" textLength="128" x="1045.5" y="195.1191">TearDown() : void</text><polygon fill="#FFFF44" points="1036.5,203.0659,1040.5,207.0659,1036.5,211.0659,1032.5,207.0659" style="stroke:#B38D22;stroke-width:1.0;"/><text fill="#000000" font-family="sans-serif" font-size="14" lengthAdjust="spacing" text-decoration="underline" textLength="195" x="1045.5" y="212.1338">TearDownTestSuite() : void</text></g><!--class ThreadPool--><g id="elem_ThreadPool"><rect codeLine="33" fill="#F1F1F1" height="184.1172" id="ThreadPool" rx="2.5" ry="2.5" style="stroke:#181818;stroke-width:0.5;" width="724" x="836" y="295.07"/><ellipse cx="1154.75" cy="311.07" fill="#ADD1B2" rx="11" ry="11" style="stroke:#181818;stroke-width:1.0;"/><path d="M1158.9063,316.6169 Q1157.2188,317.7888 1155.2813,317.7888 Q1152.8438,317.7888 1151.5625,316.1169 Q1150.2969,314.445 1150.2969,311.3669 Q1150.2969,308.4138 1151.5313,306.6794 Q1152.7656,304.945 1155.2813,304.945 Q1156.1875,304.945 1157.0625,305.1794 Q1157.9531,305.4138 1158.7188,305.9606 L1158.0313,307.6325 Q1156.5938,306.8356 1155.2813,306.8356 Q1153.8594,306.8356 1153.1406,307.8981 Q1152.4375,308.945 1152.4375,311.3669 Q1152.4375,315.9138 1155.2813,315.9138 Q1156.5469,315.9138 1158.2344,314.9294 L1158.9063,316.6169 Z " fill="#000000"/><text fill="#000000" font-family="sans-serif" font-size="14" lengthAdjust="spacing" textLength="78" x="1175.25" y="316.6379">ThreadPool</text><line style="stroke:#181818;stroke-width:0.5;" x1="837" x2="1559" y1="327.07" y2="327.07"/><rect fill="none" height="6" style="stroke:#C82930;stroke-width:1.0;" width="6" x="844" y="338.0773"/><text fill="#000000" font-family="sans-serif" font-size="14" lengthAdjust="spacing" textLength="171" x="856" y="345.1452">mStopThreadPool : bool</text><rect fill="none" height="6" style="stroke:#C82930;stroke-width:1.0;" width="6" x="844" y="355.092"/><text fill="#000000" font-family="sans-serif" font-size="14" lengthAdjust="spacing" textLength="312" x="856" y="362.1598">mConditionVariable : std::condition_variable</text><rect fill="none" height="6" style="stroke:#C82930;stroke-width:1.0;" width="6" x="844" y="372.1066"/><text fill="#000000" font-family="sans-serif" font-size="14" lengthAdjust="spacing" textLength="152" x="856" y="379.1745">mMutex : std::mutex</text><rect fill="none" height="6" style="stroke:#C82930;stroke-width:1.0;" width="6" x="844" y="389.1213"/><text fill="#000000" font-family="sans-serif" font-size="14" lengthAdjust="spacing" textLength="268" x="856" y="396.1891">mThreads : std::vector&lt;std::thread&gt;</text><line style="stroke:#181818;stroke-width:0.5;" x1="837" x2="1559" y1="403.1286" y2="403.1286"/><ellipse cx="847" cy="417.1359" fill="#84BE84" rx="3" ry="3" style="stroke:#038048;stroke-width:1.0;"/><text fill="#000000" font-family="sans-serif" font-size="14" lengthAdjust="spacing" textLength="226" x="856" y="421.2038">ThreadPool(size_t threadCount)</text><rect fill="#F24D5C" height="6" style="stroke:#C82930;stroke-width:1.0;" width="6" x="844" y="431.1506"/><text fill="#000000" font-family="sans-serif" font-size="14" lengthAdjust="spacing" textLength="109" x="856" y="438.2184">function&lt;void()</text><ellipse cx="847" cy="451.1652" fill="#84BE84" rx="3" ry="3" style="stroke:#038048;stroke-width:1.0;"/><text fill="#000000" font-family="sans-serif" font-size="14" lengthAdjust="spacing" textLength="101" x="856" y="455.2331">~ThreadPool()</text><ellipse cx="847" cy="468.1799" fill="#84BE84" rx="3" ry="3" style="stroke:#038048;stroke-width:1.0;"/><text fill="#000000" font-family="sans-serif" font-size="14" lengthAdjust="spacing" textLength="698" x="856" y="472.2477">result_of_t&lt;F(Args ... )&gt;&gt;execute ( F&amp;&amp; f, Args&amp;&amp; ... args) : requires std::invocable&lt;F , Args ...&gt;</text></g><!--class greeter--><g id="elem_greeter"><rect codeLine="8" fill="#F1F1F1" height="65.0146" id="greeter" rx="2.5" ry="2.5" style="stroke:#181818;stroke-width:0.5;" width="120" x="7" y="120.03"/><ellipse cx="38.65" cy="136.03" fill="#ADD1B2" rx="11" ry="11" style="stroke:#181818;stroke-width:1.0;"/><path d="M42.8063,141.5769 Q41.1188,142.7488 39.1813,142.7488 Q36.7438,142.7488 35.4625,141.0769 Q34.1969,139.405 34.1969,136.3269 Q34.1969,133.3738 35.4313,131.6394 Q36.6656,129.905 39.1813,129.905 Q40.0875,129.905 40.9625,130.1394 Q41.8531,130.3738 42.6188,130.9206 L41.9313,132.5925 Q40.4938,131.7956 39.1813,131.7956 Q37.7594,131.7956 37.0406,132.8581 Q36.3375,133.905 36.3375,136.3269 Q36.3375,140.8738 39.1813,140.8738 Q40.4469,140.8738 42.1344,139.8894 L42.8063,141.5769 Z " fill="#000000"/><text fill="#000000" font-family="sans-serif" font-size="14" lengthAdjust="spacing" textLength="51" x="56.35" y="141.5979">greeter</text><line style="stroke:#181818;stroke-width:0.5;" x1="8" x2="126" y1="152.03" y2="152.03"/><line style="stroke:#181818;stroke-width:0.5;" x1="8" x2="126" y1="160.03" y2="160.03"/><ellipse cx="18" cy="174.0373" fill="#84BE84" rx="3" ry="3" style="stroke:#038048;stroke-width:1.0;"/><text fill="#000000" font-family="sans-serif" font-size="14" lengthAdjust="spacing" text-decoration="underline" textLength="94" x="27" y="178.1052">greet() : void</text></g><!--class scoped_logger--><g id="elem_scoped_logger"><rect codeLine="13" fill="#F1F1F1" height="116.0586" id="scoped_logger" rx="2.5" ry="2.5" style="stroke:#181818;stroke-width:0.5;" width="618" x="162" y="94.51"/><ellipse cx="415.25" cy="110.51" fill="#ADD1B2" rx="11" ry="11" style="stroke:#181818;stroke-width:1.0;"/><path d="M419.4063,116.0569 Q417.7188,117.2288 415.7813,117.2288 Q413.3438,117.2288 412.0625,115.5569 Q410.7969,113.885 410.7969,110.8069 Q410.7969,107.8538 412.0313,106.1194 Q413.2656,104.385 415.7813,104.385 Q416.6875,104.385 417.5625,104.6194 Q418.4531,104.8538 419.2188,105.4006 L418.5313,107.0725 Q417.0938,106.2756 415.7813,106.2756 Q414.3594,106.2756 413.6406,107.3381 Q412.9375,108.385 412.9375,110.8069 Q412.9375,115.3538 415.7813,115.3538 Q417.0469,115.3538 418.7344,114.3694 L419.4063,116.0569 Z " fill="#000000"/><text fill="#000000" font-family="sans-serif" font-size="14" lengthAdjust="spacing" textLength="103" x="435.75" y="116.0779">scoped_logger</text><line style="stroke:#181818;stroke-width:0.5;" x1="163" x2="779" y1="126.51" y2="126.51"/><rect fill="none" height="6" style="stroke:#C82930;stroke-width:1.0;" width="6" x="170" y="137.5173"/><text fill="#000000" font-family="sans-serif" font-size="14" lengthAdjust="spacing" textLength="166" x="182" y="144.5852">_ss : std::stringstream</text><line style="stroke:#181818;stroke-width:0.5;" x1="163" x2="779" y1="151.5246" y2="151.5246"/><ellipse cx="173" cy="165.532" fill="#84BE84" rx="3" ry="3" style="stroke:#038048;stroke-width:1.0;"/><text fill="#000000" font-family="sans-serif" font-size="14" lengthAdjust="spacing" textLength="592" x="182" y="169.5998">scoped_logger(const std::string&amp; className, const char* funcName, unsigned line)</text><ellipse cx="173" cy="182.5466" fill="#84BE84" rx="3" ry="3" style="stroke:#038048;stroke-width:1.0;"/><text fill="#000000" font-family="sans-serif" font-size="14" lengthAdjust="spacing" textLength="126" x="182" y="186.6145">~scoped_logger()</text><ellipse cx="173" cy="199.5613" fill="#84BE84" rx="3" ry="3" style="stroke:#038048;stroke-width:1.0;"/><text fill="#000000" font-family="sans-serif" font-size="14" lengthAdjust="spacing" textLength="212" x="182" y="203.6291">stream() : std::stringstream&amp;</text></g><!--reverse link ThreadPoolTest to ThreadPool--><g id="link_ThreadPoolTest_ThreadPool"><path codeLine="57" d="M1198,233.32 C1198,253.11 1198,274.46 1198,294.76 " fill="none" id="ThreadPoolTest-backto-ThreadPool" style="stroke:#181818;stroke-width:1.0;"/><polygon fill="#181818" points="1198,220.57,1194,226.57,1198,232.57,1202,226.57,1198,220.57" style="stroke:#181818;stroke-width:1.0;"/></g><!--SRC=[TLFVRzem47ucVyL9bI2K0ky8HQew8UrXtIJONYFZ7C5LOgVsXLMhwD- -iqs0T0n5nFc-xtxwRZw2xziNbEHWD4yIMGddeBI8X1RUay7atP4W9OyHJCUmW8DHHN9CEhMJfi4YhqnPdcnwI2gDTWIEYiN2aLMw748mV1OrFa1avLxOUzYrMaQqrKwL6WkebCOnk_pe-sHecdFinRLV_aTH-_ZX47BzXnw6p3L7SOsG2B8kOjONY3WX1WQnlCsUpOeVnbGRF163k_g2Ta5QhLvRp1koomkP1VKQwMTpQPs7pcqDdFUyRXLXNxH1OR-Ot_e_fXrzq_gOyDEhYjDnD-kADKqkGEhK7ym9A21FfjKqzfAflo1IHYzza3HWauyhkwYgrsIQNeEs_0fYYwwjA3Uxd9QhzD6M3cQp6Oop3DzGjeIGmceuXDq3U99FdXPyzALPV6qLkuWDL_fWfDXMk5n1b7jn5bDuChfGFjLVmYelwgv9TaH-E37Hu1i7V-j4jV-8UApZF6a7NXLZb-4SsvDrpVPpnR_v2BxgFLf5GdFRBLR2XtDxrSGTYvh7aXUg3DGDJPZA6G_YxDFutK-dS2BzVLxHoJdyCmjvTSpLNYT_0G00]--></g></svg>