<?xml version="1.0" encoding="us-ascii" standalone="no"?><svg xmlns="http://www.w3.org/2000/svg" xmlns:xlink="http://www.w3.org/1999/xlink" contentStyleType="text/css" height="533px" preserveAspectRatio="none" style="width:2490px;height:533px;background:#FFFFFF;" version="1.1" viewBox="0 0 2490 533" width="2490px" zoomAndPan="magnify"><defs/><g><!--cluster cmder--><g id="cluster_cmder"><path d="M645.5,13.26 L694.5,13.26 A3.75,3.75 0 0 1 697,15.76 L704,36.2746 L2480.5,36.2746 A2.5,2.5 0 0 1 2483,38.7746 L2483,523.95 A2.5,2.5 0 0 1 2480.5,526.45 L645.5,526.45 A2.5,2.5 0 0 1 643,523.95 L643,15.76 A2.5,2.5 0 0 1 645.5,13.26 " fill="none" style="stroke:#000000;stroke-width:1.5;"/><line style="stroke:#000000;stroke-width:1.5;" x1="643" x2="704" y1="36.2746" y2="36.2746"/><text fill="#000000" font-family="sans-serif" font-size="14" font-weight="bold" lengthAdjust="spacing" textLength="48" x="647" y="29.3352">cmder</text></g><!--cluster tst--><g id="cluster_tst"><path d="M1828.5,57.26 L1849.5,57.26 A3.75,3.75 0 0 1 1852,59.76 L1859,80.2746 L2456.5,80.2746 A2.5,2.5 0 0 1 2459,82.7746 L2459,239.83 A2.5,2.5 0 0 1 2456.5,242.33 L1828.5,242.33 A2.5,2.5 0 0 1 1826,239.83 L1826,59.76 A2.5,2.5 0 0 1 1828.5,57.26 " fill="none" style="stroke:#000000;stroke-width:1.5;"/><line style="stroke:#000000;stroke-width:1.5;" x1="1826" x2="1859" y1="80.2746" y2="80.2746"/><text fill="#000000" font-family="sans-serif" font-size="14" font-weight="bold" lengthAdjust="spacing" textLength="20" x="1830" y="73.3352">tst</text></g><!--cluster tools--><g id="cluster_tools"><path d="M1639.5,266.33 L1678.5,266.33 A3.75,3.75 0 0 1 1681,268.83 L1688,289.3446 L2390.5,289.3446 A2.5,2.5 0 0 1 2393,291.8446 L2393,499.95 A2.5,2.5 0 0 1 2390.5,502.45 L1639.5,502.45 A2.5,2.5 0 0 1 1637,499.95 L1637,268.83 A2.5,2.5 0 0 1 1639.5,266.33 " fill="none" style="stroke:#000000;stroke-width:1.5;"/><line style="stroke:#000000;stroke-width:1.5;" x1="1637" x2="1688" y1="289.3446" y2="289.3446"/><text fill="#000000" font-family="sans-serif" font-size="14" font-weight="bold" lengthAdjust="spacing" textLength="38" x="1641" y="282.4052">tools</text></g><!--cluster agent--><g id="cluster_agent"><path d="M1065.5,74.27 L1110.5,74.27 A3.75,3.75 0 0 1 1113,76.77 L1120,97.2846 L1799.5,97.2846 A2.5,2.5 0 0 1 1802,99.7846 L1802,222.82 A2.5,2.5 0 0 1 1799.5,225.32 L1065.5,225.32 A2.5,2.5 0 0 1 1063,222.82 L1063,76.77 A2.5,2.5 0 0 1 1065.5,74.27 " fill="none" style="stroke:#000000;stroke-width:1.5;"/><line style="stroke:#000000;stroke-width:1.5;" x1="1063" x2="1120" y1="97.2846" y2="97.2846"/><text fill="#000000" font-family="sans-serif" font-size="14" font-weight="bold" lengthAdjust="spacing" textLength="44" x="1067" y="90.3452">agent</text></g><!--class CallbackMessageType_t--><g id="elem_CallbackMessageType_t"><rect codeLine="17" fill="#F1F1F1" height="82.0293" id="CallbackMessageType_t" rx="2.5" ry="2.5" style="stroke:#181818;stroke-width:0.5;" width="197" x="847.5" y="118.78"/><ellipse cx="862.5" cy="134.78" fill="#EB937F" rx="11" ry="11" style="stroke:#181818;stroke-width:1.0;"/><path d="M866.4375,141.28 L859.625,141.28 L859.625,128.8738 L866.375,128.8738 L866.375,130.7488 L861.6719,130.7488 L861.6719,133.7019 L866.2031,133.7019 L866.2031,135.5613 L861.6719,135.5613 L861.6719,139.405 L866.4375,139.405 L866.4375,141.28 Z " fill="#000000"/><text fill="#000000" font-family="sans-serif" font-size="14" lengthAdjust="spacing" textLength="165" x="876.5" y="140.3479">CallbackMessageType_t</text><line style="stroke:#181818;stroke-width:0.5;" x1="848.5" x2="1043.5" y1="150.78" y2="150.78"/><text fill="#000000" font-family="sans-serif" font-size="14" lengthAdjust="spacing" textLength="103" x="853.5" y="168.8552">NOTIFICATION</text><text fill="#000000" font-family="sans-serif" font-size="14" lengthAdjust="spacing" textLength="56" x="853.5" y="185.8698">RESULT</text><line style="stroke:#181818;stroke-width:0.5;" x1="848.5" x2="1043.5" y1="192.8093" y2="192.8093"/></g><!--class ExecutionMode_t--><g id="elem_ExecutionMode_t"><rect codeLine="22" fill="#F1F1F1" height="82.0293" id="ExecutionMode_t" rx="2.5" ry="2.5" style="stroke:#181818;stroke-width:0.5;" width="153" x="659.5" y="118.78"/><ellipse cx="674.5" cy="134.78" fill="#EB937F" rx="11" ry="11" style="stroke:#181818;stroke-width:1.0;"/><path d="M678.4375,141.28 L671.625,141.28 L671.625,128.8738 L678.375,128.8738 L678.375,130.7488 L673.6719,130.7488 L673.6719,133.7019 L678.2031,133.7019 L678.2031,135.5613 L673.6719,135.5613 L673.6719,139.405 L678.4375,139.405 L678.4375,141.28 Z " fill="#000000"/><text fill="#000000" font-family="sans-serif" font-size="14" lengthAdjust="spacing" textLength="121" x="688.5" y="140.3479">ExecutionMode_t</text><line style="stroke:#181818;stroke-width:0.5;" x1="660.5" x2="811.5" y1="150.78" y2="150.78"/><text fill="#000000" font-family="sans-serif" font-size="14" lengthAdjust="spacing" textLength="42" x="665.5" y="168.8552">Async</text><text fill="#000000" font-family="sans-serif" font-size="14" lengthAdjust="spacing" textLength="58" x="665.5" y="185.8698">Blocking</text><line style="stroke:#181818;stroke-width:0.5;" x1="660.5" x2="811.5" y1="192.8093" y2="192.8093"/></g><!--class TaskTest--><g id="elem_TaskTest"><rect codeLine="28" fill="#F1F1F1" height="116.0586" id="TaskTest" rx="2.5" ry="2.5" style="stroke:#181818;stroke-width:0.5;" width="221" x="2222.5" y="101.77"/><ellipse cx="2296.75" cy="117.77" fill="#ADD1B2" rx="11" ry="11" style="stroke:#181818;stroke-width:1.0;"/><path d="M2300.9063,123.3169 Q2299.2188,124.4888 2297.2813,124.4888 Q2294.8438,124.4888 2293.5625,122.8169 Q2292.2969,121.145 2292.2969,118.0669 Q2292.2969,115.1138 2293.5313,113.3794 Q2294.7656,111.645 2297.2813,111.645 Q2298.1875,111.645 2299.0625,111.8794 Q2299.9531,112.1138 2300.7188,112.6606 L2300.0313,114.3325 Q2298.5938,113.5356 2297.2813,113.5356 Q2295.8594,113.5356 2295.1406,114.5981 Q2294.4375,115.645 2294.4375,118.0669 Q2294.4375,122.6138 2297.2813,122.6138 Q2298.5469,122.6138 2300.2344,121.6294 L2300.9063,123.3169 Z " fill="#000000"/><text fill="#000000" font-family="sans-serif" font-size="14" lengthAdjust="spacing" textLength="64" x="2317.25" y="123.3379">TaskTest</text><line style="stroke:#181818;stroke-width:0.5;" x1="2223.5" x2="2442.5" y1="133.77" y2="133.77"/><line style="stroke:#181818;stroke-width:0.5;" x1="2223.5" x2="2442.5" y1="141.77" y2="141.77"/><polygon fill="#FFFF44" points="2233.5,150.7773,2237.5,154.7773,2233.5,158.7773,2229.5,154.7773" style="stroke:#B38D22;stroke-width:1.0;"/><text fill="#000000" font-family="sans-serif" font-size="14" lengthAdjust="spacing" textLength="100" x="2242.5" y="159.8452">SetUp() : void</text><polygon fill="#FFFF44" points="2233.5,167.792,2237.5,171.792,2233.5,175.792,2229.5,171.792" style="stroke:#B38D22;stroke-width:1.0;"/><text fill="#000000" font-family="sans-serif" font-size="14" lengthAdjust="spacing" text-decoration="underline" textLength="167" x="2242.5" y="176.8598">SetUpTestSuite() : void</text><polygon fill="#FFFF44" points="2233.5,184.8066,2237.5,188.8066,2233.5,192.8066,2229.5,188.8066" style="stroke:#B38D22;stroke-width:1.0;"/><text fill="#000000" font-family="sans-serif" font-size="14" lengthAdjust="spacing" textLength="128" x="2242.5" y="193.8745">TearDown() : void</text><polygon fill="#FFFF44" points="2233.5,201.8213,2237.5,205.8213,2233.5,209.8213,2229.5,205.8213" style="stroke:#B38D22;stroke-width:1.0;"/><text fill="#000000" font-family="sans-serif" font-size="14" lengthAdjust="spacing" text-decoration="underline" textLength="195" x="2242.5" y="210.8891">TearDownTestSuite() : void</text></g><!--class ThreadPoolTest--><g id="elem_ThreadPoolTest"><rect codeLine="35" fill="#F1F1F1" height="133.0732" id="ThreadPoolTest" rx="2.5" ry="2.5" style="stroke:#181818;stroke-width:0.5;" width="345" x="1842.5" y="93.26"/><ellipse cx="1956.25" cy="109.26" fill="#ADD1B2" rx="11" ry="11" style="stroke:#181818;stroke-width:1.0;"/><path d="M1960.4063,114.8069 Q1958.7188,115.9788 1956.7813,115.9788 Q1954.3438,115.9788 1953.0625,114.3069 Q1951.7969,112.635 1951.7969,109.5569 Q1951.7969,106.6038 1953.0313,104.8694 Q1954.2656,103.135 1956.7813,103.135 Q1957.6875,103.135 1958.5625,103.3694 Q1959.4531,103.6038 1960.2188,104.1506 L1959.5313,105.8225 Q1958.0938,105.0256 1956.7813,105.0256 Q1955.3594,105.0256 1954.6406,106.0881 Q1953.9375,107.135 1953.9375,109.5569 Q1953.9375,114.1038 1956.7813,114.1038 Q1958.0469,114.1038 1959.7344,113.1194 L1960.4063,114.8069 Z " fill="#000000"/><text fill="#000000" font-family="sans-serif" font-size="14" lengthAdjust="spacing" textLength="109" x="1976.75" y="114.8279">ThreadPoolTest</text><line style="stroke:#181818;stroke-width:0.5;" x1="1843.5" x2="2186.5" y1="125.26" y2="125.26"/><polygon fill="none" points="1853.5,134.2673,1857.5,138.2673,1853.5,142.2673,1849.5,138.2673" style="stroke:#B38D22;stroke-width:1.0;"/><text fill="#000000" font-family="sans-serif" font-size="14" lengthAdjust="spacing" textLength="319" x="1862.5" y="143.3352">mThreadPool : std::unique_ptr&lt;ThreadPool&gt;</text><line style="stroke:#181818;stroke-width:0.5;" x1="1843.5" x2="2186.5" y1="150.2746" y2="150.2746"/><polygon fill="#FFFF44" points="1853.5,159.282,1857.5,163.282,1853.5,167.282,1849.5,163.282" style="stroke:#B38D22;stroke-width:1.0;"/><text fill="#000000" font-family="sans-serif" font-size="14" lengthAdjust="spacing" textLength="100" x="1862.5" y="168.3498">SetUp() : void</text><polygon fill="#FFFF44" points="1853.5,176.2966,1857.5,180.2966,1853.5,184.2966,1849.5,180.2966" style="stroke:#B38D22;stroke-width:1.0;"/><text fill="#000000" font-family="sans-serif" font-size="14" lengthAdjust="spacing" text-decoration="underline" textLength="167" x="1862.5" y="185.3645">SetUpTestSuite() : void</text><polygon fill="#FFFF44" points="1853.5,193.3113,1857.5,197.3113,1853.5,201.3113,1849.5,197.3113" style="stroke:#B38D22;stroke-width:1.0;"/><text fill="#000000" font-family="sans-serif" font-size="14" lengthAdjust="spacing" textLength="128" x="1862.5" y="202.3791">TearDown() : void</text><polygon fill="#FFFF44" points="1853.5,210.3259,1857.5,214.3259,1853.5,218.3259,1849.5,214.3259" style="stroke:#B38D22;stroke-width:1.0;"/><text fill="#000000" font-family="sans-serif" font-size="14" lengthAdjust="spacing" text-decoration="underline" textLength="195" x="1862.5" y="219.3938">TearDownTestSuite() : void</text></g><!--class ThreadPool--><g id="elem_ThreadPool"><rect codeLine="45" fill="#F1F1F1" height="184.1172" id="ThreadPool" rx="2.5" ry="2.5" style="stroke:#181818;stroke-width:0.5;" width="724" x="1653" y="302.33"/><ellipse cx="1971.75" cy="318.33" fill="#ADD1B2" rx="11" ry="11" style="stroke:#181818;stroke-width:1.0;"/><path d="M1975.9063,323.8769 Q1974.2188,325.0488 1972.2813,325.0488 Q1969.8438,325.0488 1968.5625,323.3769 Q1967.2969,321.705 1967.2969,318.6269 Q1967.2969,315.6738 1968.5313,313.9394 Q1969.7656,312.205 1972.2813,312.205 Q1973.1875,312.205 1974.0625,312.4394 Q1974.9531,312.6738 1975.7188,313.2206 L1975.0313,314.8925 Q1973.5938,314.0956 1972.2813,314.0956 Q1970.8594,314.0956 1970.1406,315.1581 Q1969.4375,316.205 1969.4375,318.6269 Q1969.4375,323.1738 1972.2813,323.1738 Q1973.5469,323.1738 1975.2344,322.1894 L1975.9063,323.8769 Z " fill="#000000"/><text fill="#000000" font-family="sans-serif" font-size="14" lengthAdjust="spacing" textLength="78" x="1992.25" y="323.8979">ThreadPool</text><line style="stroke:#181818;stroke-width:0.5;" x1="1654" x2="2376" y1="334.33" y2="334.33"/><rect fill="none" height="6" style="stroke:#C82930;stroke-width:1.0;" width="6" x="1661" y="345.3373"/><text fill="#000000" font-family="sans-serif" font-size="14" lengthAdjust="spacing" textLength="171" x="1673" y="352.4052">mStopThreadPool : bool</text><rect fill="none" height="6" style="stroke:#C82930;stroke-width:1.0;" width="6" x="1661" y="362.352"/><text fill="#000000" font-family="sans-serif" font-size="14" lengthAdjust="spacing" textLength="312" x="1673" y="369.4198">mConditionVariable : std::condition_variable</text><rect fill="none" height="6" style="stroke:#C82930;stroke-width:1.0;" width="6" x="1661" y="379.3666"/><text fill="#000000" font-family="sans-serif" font-size="14" lengthAdjust="spacing" textLength="152" x="1673" y="386.4345">mMutex : std::mutex</text><rect fill="none" height="6" style="stroke:#C82930;stroke-width:1.0;" width="6" x="1661" y="396.3813"/><text fill="#000000" font-family="sans-serif" font-size="14" lengthAdjust="spacing" textLength="268" x="1673" y="403.4491">mThreads : std::vector&lt;std::thread&gt;</text><line style="stroke:#181818;stroke-width:0.5;" x1="1654" x2="2376" y1="410.3886" y2="410.3886"/><ellipse cx="1664" cy="424.3959" fill="#84BE84" rx="3" ry="3" style="stroke:#038048;stroke-width:1.0;"/><text fill="#000000" font-family="sans-serif" font-size="14" lengthAdjust="spacing" textLength="226" x="1673" y="428.4638">ThreadPool(size_t threadCount)</text><rect fill="#F24D5C" height="6" style="stroke:#C82930;stroke-width:1.0;" width="6" x="1661" y="438.4106"/><text fill="#000000" font-family="sans-serif" font-size="14" lengthAdjust="spacing" textLength="109" x="1673" y="445.4784">function&lt;void()</text><ellipse cx="1664" cy="458.4252" fill="#84BE84" rx="3" ry="3" style="stroke:#038048;stroke-width:1.0;"/><text fill="#000000" font-family="sans-serif" font-size="14" lengthAdjust="spacing" textLength="101" x="1673" y="462.4931">~ThreadPool()</text><ellipse cx="1664" cy="475.4399" fill="#84BE84" rx="3" ry="3" style="stroke:#038048;stroke-width:1.0;"/><text fill="#000000" font-family="sans-serif" font-size="14" lengthAdjust="spacing" textLength="698" x="1673" y="479.5077">result_of_t&lt;F(Args ... )&gt;&gt;execute ( F&amp;&amp; f, Args&amp;&amp; ... args) : requires std::invocable&lt;F , Args ...&gt;</text></g><!--class Task--><g id="elem_Task"><rect codeLine="58" fill="#F1F1F1" height="65.0146" id="Task" rx="2.5" ry="2.5" style="stroke:#181818;stroke-width:0.5;" width="362" x="1416" y="127.3"/><ellipse cx="1576.25" cy="143.3" fill="#ADD1B2" rx="11" ry="11" style="stroke:#181818;stroke-width:1.0;"/><path d="M1580.4063,148.8469 Q1578.7188,150.0188 1576.7813,150.0188 Q1574.3438,150.0188 1573.0625,148.3469 Q1571.7969,146.675 1571.7969,143.5969 Q1571.7969,140.6438 1573.0313,138.9094 Q1574.2656,137.175 1576.7813,137.175 Q1577.6875,137.175 1578.5625,137.4094 Q1579.4531,137.6438 1580.2188,138.1906 L1579.5313,139.8625 Q1578.0938,139.0656 1576.7813,139.0656 Q1575.3594,139.0656 1574.6406,140.1281 Q1573.9375,141.175 1573.9375,143.5969 Q1573.9375,148.1438 1576.7813,148.1438 Q1578.0469,148.1438 1579.7344,147.1594 L1580.4063,148.8469 Z " fill="#000000"/><text fill="#000000" font-family="sans-serif" font-size="14" lengthAdjust="spacing" textLength="33" x="1596.75" y="148.8679">Task</text><line style="stroke:#181818;stroke-width:0.5;" x1="1417" x2="1777" y1="159.3" y2="159.3"/><rect fill="none" height="6" style="stroke:#C82930;stroke-width:1.0;" width="6" x="1424" y="170.3073"/><text fill="#000000" font-family="sans-serif" font-size="14" lengthAdjust="spacing" textLength="336" x="1436" y="177.3752">mTaskConfiguration : std::vector&lt;TaskConfig&gt;</text><line style="stroke:#181818;stroke-width:0.5;" x1="1417" x2="1777" y1="184.3146" y2="184.3146"/></g><!--class TaskName--><g id="elem_TaskName"><rect codeLine="62" fill="#F1F1F1" height="99.0439" id="TaskName" rx="2.5" ry="2.5" style="stroke:#181818;stroke-width:0.5;" width="104" x="1269" y="110.27"/><ellipse cx="1284" cy="126.27" fill="#EB937F" rx="11" ry="11" style="stroke:#181818;stroke-width:1.0;"/><path d="M1287.9375,132.77 L1281.125,132.77 L1281.125,120.3638 L1287.875,120.3638 L1287.875,122.2388 L1283.1719,122.2388 L1283.1719,125.1919 L1287.7031,125.1919 L1287.7031,127.0513 L1283.1719,127.0513 L1283.1719,130.895 L1287.9375,130.895 L1287.9375,132.77 Z " fill="#000000"/><text fill="#000000" font-family="sans-serif" font-size="14" lengthAdjust="spacing" textLength="72" x="1298" y="131.8379">TaskName</text><line style="stroke:#181818;stroke-width:0.5;" x1="1270" x2="1372" y1="142.27" y2="142.27"/><text fill="#000000" font-family="sans-serif" font-size="14" lengthAdjust="spacing" textLength="82" x="1275" y="160.3452">BlockMe_3s</text><text fill="#000000" font-family="sans-serif" font-size="14" lengthAdjust="spacing" textLength="11" x="1275" y="177.3598">Pi</text><text fill="#000000" font-family="sans-serif" font-size="14" lengthAdjust="spacing" textLength="75" x="1275" y="194.3745">PingMe_5x</text><line style="stroke:#181818;stroke-width:0.5;" x1="1270" x2="1372" y1="201.3139" y2="201.3139"/></g><!--class Task::TaskConfig--><g id="elem_Task::TaskConfig"><rect codeLine="68" fill="#F1F1F1" height="48" id="Task::TaskConfig" rx="2.5" ry="2.5" style="stroke:#181818;stroke-width:0.5;" width="155" x="1079.5" y="135.8"/><ellipse cx="1094.5" cy="151.8" fill="#ADD1B2" rx="11" ry="11" style="stroke:#181818;stroke-width:1.0;"/><path d="M1098.6563,157.3469 Q1096.9688,158.5188 1095.0313,158.5188 Q1092.5938,158.5188 1091.3125,156.8469 Q1090.0469,155.175 1090.0469,152.0969 Q1090.0469,149.1438 1091.2813,147.4094 Q1092.5156,145.675 1095.0313,145.675 Q1095.9375,145.675 1096.8125,145.9094 Q1097.7031,146.1438 1098.4688,146.6906 L1097.7813,148.3625 Q1096.3438,147.5656 1095.0313,147.5656 Q1093.6094,147.5656 1092.8906,148.6281 Q1092.1875,149.675 1092.1875,152.0969 Q1092.1875,156.6438 1095.0313,156.6438 Q1096.2969,156.6438 1097.9844,155.6594 L1098.6563,157.3469 Z " fill="#000000"/><text fill="#000000" font-family="sans-serif" font-size="14" lengthAdjust="spacing" textLength="123" x="1108.5" y="157.3679">Task::TaskConfig</text><line style="stroke:#181818;stroke-width:0.5;" x1="1080.5" x2="1233.5" y1="167.8" y2="167.8"/><line style="stroke:#181818;stroke-width:0.5;" x1="1080.5" x2="1233.5" y1="175.8" y2="175.8"/></g><!--class scoped_logger--><g id="elem_scoped_logger"><rect codeLine="8" fill="#F1F1F1" height="116.0586" id="scoped_logger" rx="2.5" ry="2.5" style="stroke:#181818;stroke-width:0.5;" width="618" x="7" y="101.77"/><ellipse cx="260.25" cy="117.77" fill="#ADD1B2" rx="11" ry="11" style="stroke:#181818;stroke-width:1.0;"/><path d="M264.4063,123.3169 Q262.7188,124.4888 260.7813,124.4888 Q258.3438,124.4888 257.0625,122.8169 Q255.7969,121.145 255.7969,118.0669 Q255.7969,115.1138 257.0313,113.3794 Q258.2656,111.645 260.7813,111.645 Q261.6875,111.645 262.5625,111.8794 Q263.4531,112.1138 264.2188,112.6606 L263.5313,114.3325 Q262.0938,113.5356 260.7813,113.5356 Q259.3594,113.5356 258.6406,114.5981 Q257.9375,115.645 257.9375,118.0669 Q257.9375,122.6138 260.7813,122.6138 Q262.0469,122.6138 263.7344,121.6294 L264.4063,123.3169 Z " fill="#000000"/><text fill="#000000" font-family="sans-serif" font-size="14" lengthAdjust="spacing" textLength="103" x="280.75" y="123.3379">scoped_logger</text><line style="stroke:#181818;stroke-width:0.5;" x1="8" x2="624" y1="133.77" y2="133.77"/><rect fill="none" height="6" style="stroke:#C82930;stroke-width:1.0;" width="6" x="15" y="144.7773"/><text fill="#000000" font-family="sans-serif" font-size="14" lengthAdjust="spacing" textLength="166" x="27" y="151.8452">_ss : std::stringstream</text><line style="stroke:#181818;stroke-width:0.5;" x1="8" x2="624" y1="158.7846" y2="158.7846"/><ellipse cx="18" cy="172.792" fill="#84BE84" rx="3" ry="3" style="stroke:#038048;stroke-width:1.0;"/><text fill="#000000" font-family="sans-serif" font-size="14" lengthAdjust="spacing" textLength="592" x="27" y="176.8598">scoped_logger(const std::string&amp; className, const char* funcName, unsigned line)</text><ellipse cx="18" cy="189.8066" fill="#84BE84" rx="3" ry="3" style="stroke:#038048;stroke-width:1.0;"/><text fill="#000000" font-family="sans-serif" font-size="14" lengthAdjust="spacing" textLength="126" x="27" y="193.8745">~scoped_logger()</text><ellipse cx="18" cy="206.8213" fill="#84BE84" rx="3" ry="3" style="stroke:#038048;stroke-width:1.0;"/><text fill="#000000" font-family="sans-serif" font-size="14" lengthAdjust="spacing" textLength="212" x="27" y="210.8891">stream() : std::stringstream&amp;</text></g><!--reverse link ThreadPoolTest to ThreadPool--><g id="link_ThreadPoolTest_ThreadPool"><path codeLine="84" d="M2015,240.58 C2015,260.37 2015,281.72 2015,302.02 " fill="none" id="ThreadPoolTest-backto-ThreadPool" style="stroke:#181818;stroke-width:1.0;"/><polygon fill="#181818" points="2015,227.83,2011,233.83,2015,239.83,2019,233.83,2015,227.83" style="stroke:#181818;stroke-width:1.0;"/></g><!--reverse link Task to Task--><g id="link_Task_Task"><path codeLine="93" d="M1607.61,107.86 C1613.12,59.01 1609.58,6 1597,6 C1580.39,6 1579.55,109.19 1594.47,163.52 " fill="none" id="Task-backto-Task" style="stroke:#181818;stroke-width:1.0;"/><ellipse cx="1606.5748" cy="114.5725" fill="#FFFFFF" rx="8" ry="8" style="stroke:#181818;stroke-width:1.0;"/><line style="stroke:#181818;stroke-width:1.0;" x1="1607.6496" x2="1605.5" y1="106.6451" y2="122.5"/><line style="stroke:#181818;stroke-width:1.0;" x1="1614.5023" x2="1598.6473" y1="115.6473" y2="113.4977"/></g><!--SRC=[nLHDZzem43sJNs6f4X_B0eUg5uIGA5qaf0Ah9TjhP9mXk2HsrdOeszNkR-_O9YHGUcuEYJtlpSoRYSU35bbjVW8pchG6GS1IgZNHJEOGHwbC4b3aBMXqBonj9eKsH9juEDH6SP4qYNDSqWpkYKVPZgexiYq4yzP2Q9u8Y4dA1NGmvCTbJ3Jr8imzhCV5Dz3CvdUBTkSMt0pUWo0Gc4Ndb05XMUnLWoWoCgLfkg5ilm2jQGBXQmwHiMXZkGhdi_bq4ivNIzm-FQoVluT10uDvpuSZiC9mAHOoBdqc-bKm_7vD9TkZ0a-lSXljURwF8TNx44wcngSrcEVSrN2GF7QcDsseuUoTECnormKtS4aAWQflyfVuXsi9t_IsyaerE-nM_2XbMjEKLTQojuNWBmL4kL6Z2Xp_nmgkUunoTBtBLGMkfcvbQ6l-s_uwuonJMGZJiPIUFPVsruviahQpTJzgVfwLhOtCBngqmOyZAz15QYAvZSnerfweH9D-lqywup6uOmEaJMRD9jdU4mlYoi8KbxOq1Iy5nn2-uLmS9AER54OpukcMFFOIfbB4t4hzGHMtfF8tiHA83YV4Eomm-R4aPNRZxRwEyu0TSEQb6hcrRy_uLhDnPCJraVPjneYuHdbRdXIAMYLNiIjyN9v4DrZMRYy57yUDqWAYpzhk7hb_YmHDNuvN9nWTXyCgh0lW9DiR09z1Yyp53XGtLA1u1QdJfNSyz_URvqoIH47Y9V_DSVT77oUvVpKnTxqUEO7s2DRWu9n-YKIyv6JzJdKkhf5zrxxkEKvbh9TbG_q1]--></g></svg>