<?xml version="1.0" encoding="us-ascii" standalone="no"?><svg xmlns="http://www.w3.org/2000/svg" xmlns:xlink="http://www.w3.org/1999/xlink" contentStyleType="text/css" height="533px" preserveAspectRatio="none" style="width:2092px;height:533px;background:#FFFFFF;" version="1.1" viewBox="0 0 2092 533" width="2092px" zoomAndPan="magnify"><defs/><g><!--cluster cmder--><g id="cluster_cmder"><path d="M643.5,13.26 L692.5,13.26 A3.75,3.75 0 0 1 695,15.76 L702,36.2746 L2082.5,36.2746 A2.5,2.5 0 0 1 2085,38.7746 L2085,523.95 A2.5,2.5 0 0 1 2082.5,526.45 L643.5,526.45 A2.5,2.5 0 0 1 641,523.95 L641,15.76 A2.5,2.5 0 0 1 643.5,13.26 " fill="none" style="stroke:#000000;stroke-width:1.5;"/><line style="stroke:#000000;stroke-width:1.5;" x1="641" x2="702" y1="36.2746" y2="36.2746"/><text fill="#000000" font-family="sans-serif" font-size="14" font-weight="bold" lengthAdjust="spacing" textLength="48" x="645" y="29.3352">cmder</text></g><!--cluster tst--><g id="cluster_tst"><path d="M1430.5,57.26 L1451.5,57.26 A3.75,3.75 0 0 1 1454,59.76 L1461,80.2746 L2058.5,80.2746 A2.5,2.5 0 0 1 2061,82.7746 L2061,239.83 A2.5,2.5 0 0 1 2058.5,242.33 L1430.5,242.33 A2.5,2.5 0 0 1 1428,239.83 L1428,59.76 A2.5,2.5 0 0 1 1430.5,57.26 " fill="none" style="stroke:#000000;stroke-width:1.5;"/><line style="stroke:#000000;stroke-width:1.5;" x1="1428" x2="1461" y1="80.2746" y2="80.2746"/><text fill="#000000" font-family="sans-serif" font-size="14" font-weight="bold" lengthAdjust="spacing" textLength="20" x="1432" y="73.3352">tst</text></g><!--cluster tools--><g id="cluster_tools"><path d="M1241.5,266.33 L1280.5,266.33 A3.75,3.75 0 0 1 1283,268.83 L1290,289.3446 L1992.5,289.3446 A2.5,2.5 0 0 1 1995,291.8446 L1995,499.95 A2.5,2.5 0 0 1 1992.5,502.45 L1241.5,502.45 A2.5,2.5 0 0 1 1239,499.95 L1239,268.83 A2.5,2.5 0 0 1 1241.5,266.33 " fill="none" style="stroke:#000000;stroke-width:1.5;"/><line style="stroke:#000000;stroke-width:1.5;" x1="1239" x2="1290" y1="289.3446" y2="289.3446"/><text fill="#000000" font-family="sans-serif" font-size="14" font-weight="bold" lengthAdjust="spacing" textLength="38" x="1243" y="282.4052">tools</text></g><!--cluster agent--><g id="cluster_agent"><path d="M667.5,74.27 L712.5,74.27 A3.75,3.75 0 0 1 715,76.77 L722,97.2846 L1401.5,97.2846 A2.5,2.5 0 0 1 1404,99.7846 L1404,222.82 A2.5,2.5 0 0 1 1401.5,225.32 L667.5,225.32 A2.5,2.5 0 0 1 665,222.82 L665,76.77 A2.5,2.5 0 0 1 667.5,74.27 " fill="none" style="stroke:#000000;stroke-width:1.5;"/><line style="stroke:#000000;stroke-width:1.5;" x1="665" x2="722" y1="97.2846" y2="97.2846"/><text fill="#000000" font-family="sans-serif" font-size="14" font-weight="bold" lengthAdjust="spacing" textLength="44" x="669" y="90.3452">agent</text></g><!--class TaskTest--><g id="elem_TaskTest"><rect codeLine="18" fill="#F1F1F1" height="116.0586" id="TaskTest" rx="2.5" ry="2.5" style="stroke:#181818;stroke-width:0.5;" width="221" x="1824.5" y="101.77"/><ellipse cx="1898.75" cy="117.77" fill="#ADD1B2" rx="11" ry="11" style="stroke:#181818;stroke-width:1.0;"/><path d="M1902.9063,123.3169 Q1901.2188,124.4888 1899.2813,124.4888 Q1896.8438,124.4888 1895.5625,122.8169 Q1894.2969,121.145 1894.2969,118.0669 Q1894.2969,115.1138 1895.5313,113.3794 Q1896.7656,111.645 1899.2813,111.645 Q1900.1875,111.645 1901.0625,111.8794 Q1901.9531,112.1138 1902.7188,112.6606 L1902.0313,114.3325 Q1900.5938,113.5356 1899.2813,113.5356 Q1897.8594,113.5356 1897.1406,114.5981 Q1896.4375,115.645 1896.4375,118.0669 Q1896.4375,122.6138 1899.2813,122.6138 Q1900.5469,122.6138 1902.2344,121.6294 L1902.9063,123.3169 Z " fill="#000000"/><text fill="#000000" font-family="sans-serif" font-size="14" lengthAdjust="spacing" textLength="64" x="1919.25" y="123.3379">TaskTest</text><line style="stroke:#181818;stroke-width:0.5;" x1="1825.5" x2="2044.5" y1="133.77" y2="133.77"/><line style="stroke:#181818;stroke-width:0.5;" x1="1825.5" x2="2044.5" y1="141.77" y2="141.77"/><polygon fill="#FFFF44" points="1835.5,150.7773,1839.5,154.7773,1835.5,158.7773,1831.5,154.7773" style="stroke:#B38D22;stroke-width:1.0;"/><text fill="#000000" font-family="sans-serif" font-size="14" lengthAdjust="spacing" textLength="100" x="1844.5" y="159.8452">SetUp() : void</text><polygon fill="#FFFF44" points="1835.5,167.792,1839.5,171.792,1835.5,175.792,1831.5,171.792" style="stroke:#B38D22;stroke-width:1.0;"/><text fill="#000000" font-family="sans-serif" font-size="14" lengthAdjust="spacing" text-decoration="underline" textLength="167" x="1844.5" y="176.8598">SetUpTestSuite() : void</text><polygon fill="#FFFF44" points="1835.5,184.8066,1839.5,188.8066,1835.5,192.8066,1831.5,188.8066" style="stroke:#B38D22;stroke-width:1.0;"/><text fill="#000000" font-family="sans-serif" font-size="14" lengthAdjust="spacing" textLength="128" x="1844.5" y="193.8745">TearDown() : void</text><polygon fill="#FFFF44" points="1835.5,201.8213,1839.5,205.8213,1835.5,209.8213,1831.5,205.8213" style="stroke:#B38D22;stroke-width:1.0;"/><text fill="#000000" font-family="sans-serif" font-size="14" lengthAdjust="spacing" text-decoration="underline" textLength="195" x="1844.5" y="210.8891">TearDownTestSuite() : void</text></g><!--class ThreadPoolTest--><g id="elem_ThreadPoolTest"><rect codeLine="25" fill="#F1F1F1" height="133.0732" id="ThreadPoolTest" rx="2.5" ry="2.5" style="stroke:#181818;stroke-width:0.5;" width="345" x="1444.5" y="93.26"/><ellipse cx="1558.25" cy="109.26" fill="#ADD1B2" rx="11" ry="11" style="stroke:#181818;stroke-width:1.0;"/><path d="M1562.4063,114.8069 Q1560.7188,115.9788 1558.7813,115.9788 Q1556.3438,115.9788 1555.0625,114.3069 Q1553.7969,112.635 1553.7969,109.5569 Q1553.7969,106.6038 1555.0313,104.8694 Q1556.2656,103.135 1558.7813,103.135 Q1559.6875,103.135 1560.5625,103.3694 Q1561.4531,103.6038 1562.2188,104.1506 L1561.5313,105.8225 Q1560.0938,105.0256 1558.7813,105.0256 Q1557.3594,105.0256 1556.6406,106.0881 Q1555.9375,107.135 1555.9375,109.5569 Q1555.9375,114.1038 1558.7813,114.1038 Q1560.0469,114.1038 1561.7344,113.1194 L1562.4063,114.8069 Z " fill="#000000"/><text fill="#000000" font-family="sans-serif" font-size="14" lengthAdjust="spacing" textLength="109" x="1578.75" y="114.8279">ThreadPoolTest</text><line style="stroke:#181818;stroke-width:0.5;" x1="1445.5" x2="1788.5" y1="125.26" y2="125.26"/><polygon fill="none" points="1455.5,134.2673,1459.5,138.2673,1455.5,142.2673,1451.5,138.2673" style="stroke:#B38D22;stroke-width:1.0;"/><text fill="#000000" font-family="sans-serif" font-size="14" lengthAdjust="spacing" textLength="319" x="1464.5" y="143.3352">mThreadPool : std::unique_ptr&lt;ThreadPool&gt;</text><line style="stroke:#181818;stroke-width:0.5;" x1="1445.5" x2="1788.5" y1="150.2746" y2="150.2746"/><polygon fill="#FFFF44" points="1455.5,159.282,1459.5,163.282,1455.5,167.282,1451.5,163.282" style="stroke:#B38D22;stroke-width:1.0;"/><text fill="#000000" font-family="sans-serif" font-size="14" lengthAdjust="spacing" textLength="100" x="1464.5" y="168.3498">SetUp() : void</text><polygon fill="#FFFF44" points="1455.5,176.2966,1459.5,180.2966,1455.5,184.2966,1451.5,180.2966" style="stroke:#B38D22;stroke-width:1.0;"/><text fill="#000000" font-family="sans-serif" font-size="14" lengthAdjust="spacing" text-decoration="underline" textLength="167" x="1464.5" y="185.3645">SetUpTestSuite() : void</text><polygon fill="#FFFF44" points="1455.5,193.3113,1459.5,197.3113,1455.5,201.3113,1451.5,197.3113" style="stroke:#B38D22;stroke-width:1.0;"/><text fill="#000000" font-family="sans-serif" font-size="14" lengthAdjust="spacing" textLength="128" x="1464.5" y="202.3791">TearDown() : void</text><polygon fill="#FFFF44" points="1455.5,210.3259,1459.5,214.3259,1455.5,218.3259,1451.5,214.3259" style="stroke:#B38D22;stroke-width:1.0;"/><text fill="#000000" font-family="sans-serif" font-size="14" lengthAdjust="spacing" text-decoration="underline" textLength="195" x="1464.5" y="219.3938">TearDownTestSuite() : void</text></g><!--class ThreadPool--><g id="elem_ThreadPool"><rect codeLine="35" fill="#F1F1F1" height="184.1172" id="ThreadPool" rx="2.5" ry="2.5" style="stroke:#181818;stroke-width:0.5;" width="724" x="1255" y="302.33"/><ellipse cx="1573.75" cy="318.33" fill="#ADD1B2" rx="11" ry="11" style="stroke:#181818;stroke-width:1.0;"/><path d="M1577.9063,323.8769 Q1576.2188,325.0488 1574.2813,325.0488 Q1571.8438,325.0488 1570.5625,323.3769 Q1569.2969,321.705 1569.2969,318.6269 Q1569.2969,315.6738 1570.5313,313.9394 Q1571.7656,312.205 1574.2813,312.205 Q1575.1875,312.205 1576.0625,312.4394 Q1576.9531,312.6738 1577.7188,313.2206 L1577.0313,314.8925 Q1575.5938,314.0956 1574.2813,314.0956 Q1572.8594,314.0956 1572.1406,315.1581 Q1571.4375,316.205 1571.4375,318.6269 Q1571.4375,323.1738 1574.2813,323.1738 Q1575.5469,323.1738 1577.2344,322.1894 L1577.9063,323.8769 Z " fill="#000000"/><text fill="#000000" font-family="sans-serif" font-size="14" lengthAdjust="spacing" textLength="78" x="1594.25" y="323.8979">ThreadPool</text><line style="stroke:#181818;stroke-width:0.5;" x1="1256" x2="1978" y1="334.33" y2="334.33"/><rect fill="none" height="6" style="stroke:#C82930;stroke-width:1.0;" width="6" x="1263" y="345.3373"/><text fill="#000000" font-family="sans-serif" font-size="14" lengthAdjust="spacing" textLength="171" x="1275" y="352.4052">mStopThreadPool : bool</text><rect fill="none" height="6" style="stroke:#C82930;stroke-width:1.0;" width="6" x="1263" y="362.352"/><text fill="#000000" font-family="sans-serif" font-size="14" lengthAdjust="spacing" textLength="312" x="1275" y="369.4198">mConditionVariable : std::condition_variable</text><rect fill="none" height="6" style="stroke:#C82930;stroke-width:1.0;" width="6" x="1263" y="379.3666"/><text fill="#000000" font-family="sans-serif" font-size="14" lengthAdjust="spacing" textLength="152" x="1275" y="386.4345">mMutex : std::mutex</text><rect fill="none" height="6" style="stroke:#C82930;stroke-width:1.0;" width="6" x="1263" y="396.3813"/><text fill="#000000" font-family="sans-serif" font-size="14" lengthAdjust="spacing" textLength="268" x="1275" y="403.4491">mThreads : std::vector&lt;std::thread&gt;</text><line style="stroke:#181818;stroke-width:0.5;" x1="1256" x2="1978" y1="410.3886" y2="410.3886"/><ellipse cx="1266" cy="424.3959" fill="#84BE84" rx="3" ry="3" style="stroke:#038048;stroke-width:1.0;"/><text fill="#000000" font-family="sans-serif" font-size="14" lengthAdjust="spacing" textLength="226" x="1275" y="428.4638">ThreadPool(size_t threadCount)</text><rect fill="#F24D5C" height="6" style="stroke:#C82930;stroke-width:1.0;" width="6" x="1263" y="438.4106"/><text fill="#000000" font-family="sans-serif" font-size="14" lengthAdjust="spacing" textLength="109" x="1275" y="445.4784">function&lt;void()</text><ellipse cx="1266" cy="458.4252" fill="#84BE84" rx="3" ry="3" style="stroke:#038048;stroke-width:1.0;"/><text fill="#000000" font-family="sans-serif" font-size="14" lengthAdjust="spacing" textLength="101" x="1275" y="462.4931">~ThreadPool()</text><ellipse cx="1266" cy="475.4399" fill="#84BE84" rx="3" ry="3" style="stroke:#038048;stroke-width:1.0;"/><text fill="#000000" font-family="sans-serif" font-size="14" lengthAdjust="spacing" textLength="698" x="1275" y="479.5077">result_of_t&lt;F(Args ... )&gt;&gt;execute ( F&amp;&amp; f, Args&amp;&amp; ... args) : requires std::invocable&lt;F , Args ...&gt;</text></g><!--class Task--><g id="elem_Task"><rect codeLine="48" fill="#F1F1F1" height="65.0146" id="Task" rx="2.5" ry="2.5" style="stroke:#181818;stroke-width:0.5;" width="362" x="1018" y="127.3"/><ellipse cx="1178.25" cy="143.3" fill="#ADD1B2" rx="11" ry="11" style="stroke:#181818;stroke-width:1.0;"/><path d="M1182.4063,148.8469 Q1180.7188,150.0188 1178.7813,150.0188 Q1176.3438,150.0188 1175.0625,148.3469 Q1173.7969,146.675 1173.7969,143.5969 Q1173.7969,140.6438 1175.0313,138.9094 Q1176.2656,137.175 1178.7813,137.175 Q1179.6875,137.175 1180.5625,137.4094 Q1181.4531,137.6438 1182.2188,138.1906 L1181.5313,139.8625 Q1180.0938,139.0656 1178.7813,139.0656 Q1177.3594,139.0656 1176.6406,140.1281 Q1175.9375,141.175 1175.9375,143.5969 Q1175.9375,148.1438 1178.7813,148.1438 Q1180.0469,148.1438 1181.7344,147.1594 L1182.4063,148.8469 Z " fill="#000000"/><text fill="#000000" font-family="sans-serif" font-size="14" lengthAdjust="spacing" textLength="33" x="1198.75" y="148.8679">Task</text><line style="stroke:#181818;stroke-width:0.5;" x1="1019" x2="1379" y1="159.3" y2="159.3"/><rect fill="none" height="6" style="stroke:#C82930;stroke-width:1.0;" width="6" x="1026" y="170.3073"/><text fill="#000000" font-family="sans-serif" font-size="14" lengthAdjust="spacing" textLength="336" x="1038" y="177.3752">mTaskConfiguration : std::vector&lt;TaskConfig&gt;</text><line style="stroke:#181818;stroke-width:0.5;" x1="1019" x2="1379" y1="184.3146" y2="184.3146"/></g><!--class TaskName--><g id="elem_TaskName"><rect codeLine="52" fill="#F1F1F1" height="99.0439" id="TaskName" rx="2.5" ry="2.5" style="stroke:#181818;stroke-width:0.5;" width="104" x="871" y="110.27"/><ellipse cx="886" cy="126.27" fill="#EB937F" rx="11" ry="11" style="stroke:#181818;stroke-width:1.0;"/><path d="M889.9375,132.77 L883.125,132.77 L883.125,120.3638 L889.875,120.3638 L889.875,122.2388 L885.1719,122.2388 L885.1719,125.1919 L889.7031,125.1919 L889.7031,127.0513 L885.1719,127.0513 L885.1719,130.895 L889.9375,130.895 L889.9375,132.77 Z " fill="#000000"/><text fill="#000000" font-family="sans-serif" font-size="14" lengthAdjust="spacing" textLength="72" x="900" y="131.8379">TaskName</text><line style="stroke:#181818;stroke-width:0.5;" x1="872" x2="974" y1="142.27" y2="142.27"/><text fill="#000000" font-family="sans-serif" font-size="14" lengthAdjust="spacing" textLength="82" x="877" y="160.3452">BlockMe_3s</text><text fill="#000000" font-family="sans-serif" font-size="14" lengthAdjust="spacing" textLength="11" x="877" y="177.3598">Pi</text><text fill="#000000" font-family="sans-serif" font-size="14" lengthAdjust="spacing" textLength="75" x="877" y="194.3745">PingMe_5x</text><line style="stroke:#181818;stroke-width:0.5;" x1="872" x2="974" y1="201.3139" y2="201.3139"/></g><!--class Task::TaskConfig--><g id="elem_Task::TaskConfig"><rect codeLine="58" fill="#F1F1F1" height="48" id="Task::TaskConfig" rx="2.5" ry="2.5" style="stroke:#181818;stroke-width:0.5;" width="155" x="681.5" y="135.8"/><ellipse cx="696.5" cy="151.8" fill="#ADD1B2" rx="11" ry="11" style="stroke:#181818;stroke-width:1.0;"/><path d="M700.6563,157.3469 Q698.9688,158.5188 697.0313,158.5188 Q694.5938,158.5188 693.3125,156.8469 Q692.0469,155.175 692.0469,152.0969 Q692.0469,149.1438 693.2813,147.4094 Q694.5156,145.675 697.0313,145.675 Q697.9375,145.675 698.8125,145.9094 Q699.7031,146.1438 700.4688,146.6906 L699.7813,148.3625 Q698.3438,147.5656 697.0313,147.5656 Q695.6094,147.5656 694.8906,148.6281 Q694.1875,149.675 694.1875,152.0969 Q694.1875,156.6438 697.0313,156.6438 Q698.2969,156.6438 699.9844,155.6594 L700.6563,157.3469 Z " fill="#000000"/><text fill="#000000" font-family="sans-serif" font-size="14" lengthAdjust="spacing" textLength="123" x="710.5" y="157.3679">Task::TaskConfig</text><line style="stroke:#181818;stroke-width:0.5;" x1="682.5" x2="835.5" y1="167.8" y2="167.8"/><line style="stroke:#181818;stroke-width:0.5;" x1="682.5" x2="835.5" y1="175.8" y2="175.8"/></g><!--class scoped_logger--><g id="elem_scoped_logger"><rect codeLine="8" fill="#F1F1F1" height="116.0586" id="scoped_logger" rx="2.5" ry="2.5" style="stroke:#181818;stroke-width:0.5;" width="618" x="7" y="101.77"/><ellipse cx="260.25" cy="117.77" fill="#ADD1B2" rx="11" ry="11" style="stroke:#181818;stroke-width:1.0;"/><path d="M264.4063,123.3169 Q262.7188,124.4888 260.7813,124.4888 Q258.3438,124.4888 257.0625,122.8169 Q255.7969,121.145 255.7969,118.0669 Q255.7969,115.1138 257.0313,113.3794 Q258.2656,111.645 260.7813,111.645 Q261.6875,111.645 262.5625,111.8794 Q263.4531,112.1138 264.2188,112.6606 L263.5313,114.3325 Q262.0938,113.5356 260.7813,113.5356 Q259.3594,113.5356 258.6406,114.5981 Q257.9375,115.645 257.9375,118.0669 Q257.9375,122.6138 260.7813,122.6138 Q262.0469,122.6138 263.7344,121.6294 L264.4063,123.3169 Z " fill="#000000"/><text fill="#000000" font-family="sans-serif" font-size="14" lengthAdjust="spacing" textLength="103" x="280.75" y="123.3379">scoped_logger</text><line style="stroke:#181818;stroke-width:0.5;" x1="8" x2="624" y1="133.77" y2="133.77"/><rect fill="none" height="6" style="stroke:#C82930;stroke-width:1.0;" width="6" x="15" y="144.7773"/><text fill="#000000" font-family="sans-serif" font-size="14" lengthAdjust="spacing" textLength="166" x="27" y="151.8452">_ss : std::stringstream</text><line style="stroke:#181818;stroke-width:0.5;" x1="8" x2="624" y1="158.7846" y2="158.7846"/><ellipse cx="18" cy="172.792" fill="#84BE84" rx="3" ry="3" style="stroke:#038048;stroke-width:1.0;"/><text fill="#000000" font-family="sans-serif" font-size="14" lengthAdjust="spacing" textLength="592" x="27" y="176.8598">scoped_logger(const std::string&amp; className, const char* funcName, unsigned line)</text><ellipse cx="18" cy="189.8066" fill="#84BE84" rx="3" ry="3" style="stroke:#038048;stroke-width:1.0;"/><text fill="#000000" font-family="sans-serif" font-size="14" lengthAdjust="spacing" textLength="126" x="27" y="193.8745">~scoped_logger()</text><ellipse cx="18" cy="206.8213" fill="#84BE84" rx="3" ry="3" style="stroke:#038048;stroke-width:1.0;"/><text fill="#000000" font-family="sans-serif" font-size="14" lengthAdjust="spacing" textLength="212" x="27" y="210.8891">stream() : std::stringstream&amp;</text></g><!--reverse link ThreadPoolTest to ThreadPool--><g id="link_ThreadPoolTest_ThreadPool"><path codeLine="74" d="M1617,240.58 C1617,260.37 1617,281.72 1617,302.02 " fill="none" id="ThreadPoolTest-backto-ThreadPool" style="stroke:#181818;stroke-width:1.0;"/><polygon fill="#181818" points="1617,227.83,1613,233.83,1617,239.83,1621,233.83,1617,227.83" style="stroke:#181818;stroke-width:1.0;"/></g><!--reverse link Task to Task--><g id="link_Task_Task"><path codeLine="83" d="M1209.61,107.86 C1215.12,59.01 1211.58,6 1199,6 C1182.39,6 1181.55,109.19 1196.47,163.52 " fill="none" id="Task-backto-Task" style="stroke:#181818;stroke-width:1.0;"/><ellipse cx="1208.5748" cy="114.5725" fill="#FFFFFF" rx="8" ry="8" style="stroke:#181818;stroke-width:1.0;"/><line style="stroke:#181818;stroke-width:1.0;" x1="1209.6496" x2="1207.5" y1="106.6451" y2="122.5"/><line style="stroke:#181818;stroke-width:1.0;" x1="1216.5023" x2="1200.6473" y1="115.6473" y2="113.4977"/></g><!--SRC=[nLHDZzem43sJNs6f4eHb2OUg5uGYRRT2wc6tAq5xZOmp67SJE-iFYhhQ_UqTsuG4Ii_b49mtCs_UJ6Oy6v5lcv_0h26ZMPAmYXf335CDb4MbE0TDNfF1v0n9cPB64cFB-TnOBIGVaX3uI6ku9T7ATbJVaAsJBA9E6i4bbAGI4iP8-NxEYT2qmDppFYy-WTO-VpYauslcOVAM98d4BAQX30YhowYwWomAGc0GorjJyxo68pJui0BxlGdKUoNA0BqQIwrWRoJOlE_A2GldJckW-elw9VyHsfglHgFYaveT5b4-ALNrDDKTsfRif7XnK3HMBpfZ_Xyh24NqUenoJB_BNGMXfaa7f4RyXi8I6v1xvQGTUvUf7nShb5pu96d09k-zkEXLhwngpXgqmR_WhC6uoXPgMzZ5ChtJt90ioyWup-40p5aWALaEXsHxIxmHJzvCyUXBq_3Y15B4XWkvLunkAbWiINJtpdcKSAzaARpK7rGBxzH-9jOQYltH4WCUCFcXTQhzIyHZ7QUvt-CgAhq8vzYU_5gpAGTvETAnpSY8PvIt5TnfwfLSS7Vsl9r4aAuE77vN8y_dIh7d1oW-6l_s9E9JSeG-7Iuc60Fdyuus40J9VZ7nDnkHht87MbWgKRo6AkWoEz74QoVwt76kWKV9V_k4jSvmaxEBZRcPJidHw4UmPqvEwH_H4UyUrR_gGaXeP1RQDpdnT62_B4_r1m00]--></g></svg>