<?xml version="1.0" encoding="us-ascii" standalone="no"?><svg xmlns="http://www.w3.org/2000/svg" xmlns:xlink="http://www.w3.org/1999/xlink" contentStyleType="text/css" height="977px" preserveAspectRatio="none" style="width:4630px;height:977px;background:#FFFFFF;" version="1.1" viewBox="0 0 4630 977" width="4630px" zoomAndPan="magnify"><defs/><g><!--cluster cmder--><g id="cluster_cmder"><path d="M8.5,94.5 L57.5,94.5 A3.75,3.75 0 0 1 60,97 L67,117.5146 L3986.5,117.5146 A2.5,2.5 0 0 1 3989,120.0146 L3989,968.03 A2.5,2.5 0 0 1 3986.5,970.53 L8.5,970.53 A2.5,2.5 0 0 1 6,968.03 L6,97 A2.5,2.5 0 0 1 8.5,94.5 " fill="none" style="stroke:#000000;stroke-width:1.5;"/><line style="stroke:#000000;stroke-width:1.5;" x1="6" x2="67" y1="117.5146" y2="117.5146"/><text fill="#000000" font-family="sans-serif" font-size="14" font-weight="bold" lengthAdjust="spacing" textLength="48" x="10" y="110.5752">cmder</text></g><!--cluster tst--><g id="cluster_tst"><path d="M3334.5,210.46 L3355.5,210.46 A3.75,3.75 0 0 1 3358,212.96 L3365,233.4746 L3962.5,233.4746 A2.5,2.5 0 0 1 3965,235.9746 L3965,393.04 A2.5,2.5 0 0 1 3962.5,395.54 L3334.5,395.54 A2.5,2.5 0 0 1 3332,393.04 L3332,212.96 A2.5,2.5 0 0 1 3334.5,210.46 " fill="none" style="stroke:#000000;stroke-width:1.5;"/><line style="stroke:#000000;stroke-width:1.5;" x1="3332" x2="3365" y1="233.4746" y2="233.4746"/><text fill="#000000" font-family="sans-serif" font-size="14" font-weight="bold" lengthAdjust="spacing" textLength="20" x="3336" y="226.5352">tst</text></g><!--cluster tools--><g id="cluster_tools"><path d="M3211.5,521.94 L3250.5,521.94 A3.75,3.75 0 0 1 3253,524.44 L3260,544.9546 L3962.5,544.9546 A2.5,2.5 0 0 1 3965,547.4546 L3965,755.56 A2.5,2.5 0 0 1 3962.5,758.06 L3211.5,758.06 A2.5,2.5 0 0 1 3209,755.56 L3209,524.44 A2.5,2.5 0 0 1 3211.5,521.94 " fill="none" style="stroke:#000000;stroke-width:1.5;"/><line style="stroke:#000000;stroke-width:1.5;" x1="3209" x2="3260" y1="544.9546" y2="544.9546"/><text fill="#000000" font-family="sans-serif" font-size="14" font-weight="bold" lengthAdjust="spacing" textLength="38" x="3213" y="538.0152">tools</text></g><!--cluster common--><g id="cluster_common"><path d="M2009.5,475.5 L2076.5,475.5 A3.75,3.75 0 0 1 2079,478 L2086,498.5146 L3182.5,498.5146 A2.5,2.5 0 0 1 3185,501.0146 L3185,944.03 A2.5,2.5 0 0 1 3182.5,946.53 L2009.5,946.53 A2.5,2.5 0 0 1 2007,944.03 L2007,478 A2.5,2.5 0 0 1 2009.5,475.5 " fill="none" style="stroke:#000000;stroke-width:1.5;"/><line style="stroke:#000000;stroke-width:1.5;" x1="2007" x2="2086" y1="498.5146" y2="498.5146"/><text fill="#000000" font-family="sans-serif" font-size="14" font-weight="bold" lengthAdjust="spacing" textLength="66" x="2011" y="491.5752">common</text></g><!--cluster agent--><g id="cluster_agent"><path d="M826.5,138.5 L871.5,138.5 A3.75,3.75 0 0 1 874,141 L881,161.5146 L1980.5,161.5146 A2.5,2.5 0 0 1 1983,164.0146 L1983,687.5 A2.5,2.5 0 0 1 1980.5,690 L826.5,690 A2.5,2.5 0 0 1 824,687.5 L824,141 A2.5,2.5 0 0 1 826.5,138.5 " fill="none" style="stroke:#000000;stroke-width:1.5;"/><line style="stroke:#000000;stroke-width:1.5;" x1="824" x2="881" y1="161.5146" y2="161.5146"/><text fill="#000000" font-family="sans-serif" font-size="14" font-weight="bold" lengthAdjust="spacing" textLength="44" x="828" y="154.5752">agent</text></g><!--class IControllableThread--><g id="elem_IControllableThread"><rect codeLine="17" fill="#F1F1F1" height="99.0439" id="IControllableThread" rx="2.5" ry="2.5" style="stroke:#181818;stroke-width:0.5;" width="204" x="22" y="263.48"/><ellipse cx="50.5" cy="279.48" fill="#A9DCDF" rx="11" ry="11" style="stroke:#181818;stroke-width:1.0;"/><path d="M56.0781,285.23 L53.9219,285.23 L52.6406,281.1363 L49.2969,281.1363 L47.9844,285.23 L45.8438,285.23 L49.8906,272.8238 L52.0313,272.8238 L56.0781,285.23 Z M52.0313,279.2613 L50.9531,275.8863 L49.9063,279.2613 L52.0313,279.2613 Z " fill="#000000"/><text fill="#000000" font-family="sans-serif" font-size="14" font-style="italic" lengthAdjust="spacing" textLength="142" x="67.5" y="285.0479">IControllableThread</text><line style="stroke:#181818;stroke-width:0.5;" x1="23" x2="225" y1="295.48" y2="295.48"/><line style="stroke:#181818;stroke-width:0.5;" x1="23" x2="225" y1="303.48" y2="303.48"/><ellipse cx="33" cy="317.4873" fill="#84BE84" rx="3" ry="3" style="stroke:#038048;stroke-width:1.0;"/><text fill="#000000" font-family="sans-serif" font-size="14" font-style="italic" lengthAdjust="spacing" textLength="178" x="42" y="321.5552">getStatus() : int {query}</text><ellipse cx="33" cy="334.502" fill="#84BE84" rx="3" ry="3" style="stroke:#038048;stroke-width:1.0;"/><text fill="#000000" font-family="sans-serif" font-size="14" font-style="italic" lengthAdjust="spacing" textLength="91" x="42" y="338.5698">start() : void</text><ellipse cx="33" cy="351.5166" fill="#84BE84" rx="3" ry="3" style="stroke:#038048;stroke-width:1.0;"/><text fill="#000000" font-family="sans-serif" font-size="14" font-style="italic" lengthAdjust="spacing" textLength="89" x="42" y="355.5845">stop() : void</text></g><!--class IStatProvider--><g id="elem_IStatProvider"><rect codeLine="23" fill="#F1F1F1" height="65.0146" id="IStatProvider" rx="2.5" ry="2.5" style="stroke:#181818;stroke-width:0.5;" width="543" x="261.5" y="280.49"/><ellipse cx="481.75" cy="296.49" fill="#A9DCDF" rx="11" ry="11" style="stroke:#181818;stroke-width:1.0;"/><path d="M487.3281,302.24 L485.1719,302.24 L483.8906,298.1463 L480.5469,298.1463 L479.2344,302.24 L477.0938,302.24 L481.1406,289.8338 L483.2813,289.8338 L487.3281,302.24 Z M483.2813,296.2713 L482.2031,292.8963 L481.1563,296.2713 L483.2813,296.2713 Z " fill="#000000"/><text fill="#000000" font-family="sans-serif" font-size="14" font-style="italic" lengthAdjust="spacing" textLength="94" x="502.25" y="302.0579">IStatProvider</text><line style="stroke:#181818;stroke-width:0.5;" x1="262.5" x2="803.5" y1="312.49" y2="312.49"/><line style="stroke:#181818;stroke-width:0.5;" x1="262.5" x2="803.5" y1="320.49" y2="320.49"/><ellipse cx="272.5" cy="334.4973" fill="#84BE84" rx="3" ry="3" style="stroke:#038048;stroke-width:1.0;"/><text fill="#000000" font-family="sans-serif" font-size="14" font-style="italic" lengthAdjust="spacing" textLength="517" x="281.5" y="338.5652">statNotification(const std::string&amp; notificationName) : uint64_t {query}</text></g><!--class Status--><g id="elem_Status"><rect codeLine="27" fill="#F1F1F1" height="116.0586" id="Status" rx="2.5" ry="2.5" style="stroke:#181818;stroke-width:0.5;" width="79" x="84.5" y="591.97"/><ellipse cx="99.5" cy="607.97" fill="#EB937F" rx="11" ry="11" style="stroke:#181818;stroke-width:1.0;"/><path d="M103.4375,614.47 L96.625,614.47 L96.625,602.0638 L103.375,602.0638 L103.375,603.9388 L98.6719,603.9388 L98.6719,606.8919 L103.2031,606.8919 L103.2031,608.7513 L98.6719,608.7513 L98.6719,612.595 L103.4375,612.595 L103.4375,614.47 Z " fill="#000000"/><text fill="#000000" font-family="sans-serif" font-size="14" lengthAdjust="spacing" textLength="47" x="113.5" y="613.5379">Status</text><line style="stroke:#181818;stroke-width:0.5;" x1="85.5" x2="162.5" y1="623.97" y2="623.97"/><text fill="#000000" font-family="sans-serif" font-size="14" lengthAdjust="spacing" textLength="23" x="90.5" y="642.0452">Init</text><text fill="#000000" font-family="sans-serif" font-size="14" lengthAdjust="spacing" textLength="28" x="90.5" y="659.0598">Run</text><text fill="#000000" font-family="sans-serif" font-size="14" lengthAdjust="spacing" textLength="36" x="90.5" y="676.0745">Start</text><text fill="#000000" font-family="sans-serif" font-size="14" lengthAdjust="spacing" textLength="34" x="90.5" y="693.0891">Stop</text><line style="stroke:#181818;stroke-width:0.5;" x1="85.5" x2="162.5" y1="700.0286" y2="700.0286"/></g><!--class TaskTest--><g id="elem_TaskTest"><rect codeLine="35" fill="#F1F1F1" height="116.0586" id="TaskTest" rx="2.5" ry="2.5" style="stroke:#181818;stroke-width:0.5;" width="221" x="3728.5" y="254.97"/><ellipse cx="3802.75" cy="270.97" fill="#ADD1B2" rx="11" ry="11" style="stroke:#181818;stroke-width:1.0;"/><path d="M3806.9063,276.5169 Q3805.2188,277.6888 3803.2813,277.6888 Q3800.8438,277.6888 3799.5625,276.0169 Q3798.2969,274.345 3798.2969,271.2669 Q3798.2969,268.3138 3799.5313,266.5794 Q3800.7656,264.845 3803.2813,264.845 Q3804.1875,264.845 3805.0625,265.0794 Q3805.9531,265.3138 3806.7188,265.8606 L3806.0313,267.5325 Q3804.5938,266.7356 3803.2813,266.7356 Q3801.8594,266.7356 3801.1406,267.7981 Q3800.4375,268.845 3800.4375,271.2669 Q3800.4375,275.8138 3803.2813,275.8138 Q3804.5469,275.8138 3806.2344,274.8294 L3806.9063,276.5169 Z " fill="#000000"/><text fill="#000000" font-family="sans-serif" font-size="14" lengthAdjust="spacing" textLength="64" x="3823.25" y="276.5379">TaskTest</text><line style="stroke:#181818;stroke-width:0.5;" x1="3729.5" x2="3948.5" y1="286.97" y2="286.97"/><line style="stroke:#181818;stroke-width:0.5;" x1="3729.5" x2="3948.5" y1="294.97" y2="294.97"/><polygon fill="#FFFF44" points="3739.5,303.9773,3743.5,307.9773,3739.5,311.9773,3735.5,307.9773" style="stroke:#B38D22;stroke-width:1.0;"/><text fill="#000000" font-family="sans-serif" font-size="14" lengthAdjust="spacing" textLength="100" x="3748.5" y="313.0452">SetUp() : void</text><polygon fill="#FFFF44" points="3739.5,320.992,3743.5,324.992,3739.5,328.992,3735.5,324.992" style="stroke:#B38D22;stroke-width:1.0;"/><text fill="#000000" font-family="sans-serif" font-size="14" lengthAdjust="spacing" text-decoration="underline" textLength="167" x="3748.5" y="330.0598">SetUpTestSuite() : void</text><polygon fill="#FFFF44" points="3739.5,338.0066,3743.5,342.0066,3739.5,346.0066,3735.5,342.0066" style="stroke:#B38D22;stroke-width:1.0;"/><text fill="#000000" font-family="sans-serif" font-size="14" lengthAdjust="spacing" textLength="128" x="3748.5" y="347.0745">TearDown() : void</text><polygon fill="#FFFF44" points="3739.5,355.0213,3743.5,359.0213,3739.5,363.0213,3735.5,359.0213" style="stroke:#B38D22;stroke-width:1.0;"/><text fill="#000000" font-family="sans-serif" font-size="14" lengthAdjust="spacing" text-decoration="underline" textLength="195" x="3748.5" y="364.0891">TearDownTestSuite() : void</text></g><!--class ThreadPoolTest--><g id="elem_ThreadPoolTest"><rect codeLine="42" fill="#F1F1F1" height="133.0732" id="ThreadPoolTest" rx="2.5" ry="2.5" style="stroke:#181818;stroke-width:0.5;" width="345" x="3348.5" y="246.46"/><ellipse cx="3462.25" cy="262.46" fill="#ADD1B2" rx="11" ry="11" style="stroke:#181818;stroke-width:1.0;"/><path d="M3466.4063,268.0069 Q3464.7188,269.1787 3462.7813,269.1787 Q3460.3438,269.1787 3459.0625,267.5069 Q3457.7969,265.835 3457.7969,262.7569 Q3457.7969,259.8037 3459.0313,258.0694 Q3460.2656,256.335 3462.7813,256.335 Q3463.6875,256.335 3464.5625,256.5694 Q3465.4531,256.8037 3466.2188,257.3506 L3465.5313,259.0225 Q3464.0938,258.2256 3462.7813,258.2256 Q3461.3594,258.2256 3460.6406,259.2881 Q3459.9375,260.335 3459.9375,262.7569 Q3459.9375,267.3037 3462.7813,267.3037 Q3464.0469,267.3037 3465.7344,266.3194 L3466.4063,268.0069 Z " fill="#000000"/><text fill="#000000" font-family="sans-serif" font-size="14" lengthAdjust="spacing" textLength="109" x="3482.75" y="268.0279">ThreadPoolTest</text><line style="stroke:#181818;stroke-width:0.5;" x1="3349.5" x2="3692.5" y1="278.46" y2="278.46"/><polygon fill="none" points="3359.5,287.4673,3363.5,291.4673,3359.5,295.4673,3355.5,291.4673" style="stroke:#B38D22;stroke-width:1.0;"/><text fill="#000000" font-family="sans-serif" font-size="14" lengthAdjust="spacing" textLength="319" x="3368.5" y="296.5352">mThreadPool : std::unique_ptr&lt;ThreadPool&gt;</text><line style="stroke:#181818;stroke-width:0.5;" x1="3349.5" x2="3692.5" y1="303.4746" y2="303.4746"/><polygon fill="#FFFF44" points="3359.5,312.482,3363.5,316.482,3359.5,320.482,3355.5,316.482" style="stroke:#B38D22;stroke-width:1.0;"/><text fill="#000000" font-family="sans-serif" font-size="14" lengthAdjust="spacing" textLength="100" x="3368.5" y="321.5498">SetUp() : void</text><polygon fill="#FFFF44" points="3359.5,329.4966,3363.5,333.4966,3359.5,337.4966,3355.5,333.4966" style="stroke:#B38D22;stroke-width:1.0;"/><text fill="#000000" font-family="sans-serif" font-size="14" lengthAdjust="spacing" text-decoration="underline" textLength="167" x="3368.5" y="338.5645">SetUpTestSuite() : void</text><polygon fill="#FFFF44" points="3359.5,346.5113,3363.5,350.5113,3359.5,354.5113,3355.5,350.5113" style="stroke:#B38D22;stroke-width:1.0;"/><text fill="#000000" font-family="sans-serif" font-size="14" lengthAdjust="spacing" textLength="128" x="3368.5" y="355.5791">TearDown() : void</text><polygon fill="#FFFF44" points="3359.5,363.5259,3363.5,367.5259,3359.5,371.5259,3355.5,367.5259" style="stroke:#B38D22;stroke-width:1.0;"/><text fill="#000000" font-family="sans-serif" font-size="14" lengthAdjust="spacing" text-decoration="underline" textLength="195" x="3368.5" y="372.5938">TearDownTestSuite() : void</text></g><!--class ThreadPool--><g id="elem_ThreadPool"><rect codeLine="52" fill="#F1F1F1" height="184.1172" id="ThreadPool" rx="2.5" ry="2.5" style="stroke:#181818;stroke-width:0.5;" width="724" x="3225" y="557.94"/><ellipse cx="3543.75" cy="573.94" fill="#ADD1B2" rx="11" ry="11" style="stroke:#181818;stroke-width:1.0;"/><path d="M3547.9063,579.4869 Q3546.2188,580.6588 3544.2813,580.6588 Q3541.8438,580.6588 3540.5625,578.9869 Q3539.2969,577.315 3539.2969,574.2369 Q3539.2969,571.2838 3540.5313,569.5494 Q3541.7656,567.815 3544.2813,567.815 Q3545.1875,567.815 3546.0625,568.0494 Q3546.9531,568.2838 3547.7188,568.8306 L3547.0313,570.5025 Q3545.5938,569.7056 3544.2813,569.7056 Q3542.8594,569.7056 3542.1406,570.7681 Q3541.4375,571.815 3541.4375,574.2369 Q3541.4375,578.7838 3544.2813,578.7838 Q3545.5469,578.7838 3547.2344,577.7994 L3547.9063,579.4869 Z " fill="#000000"/><text fill="#000000" font-family="sans-serif" font-size="14" lengthAdjust="spacing" textLength="78" x="3564.25" y="579.5079">ThreadPool</text><line style="stroke:#181818;stroke-width:0.5;" x1="3226" x2="3948" y1="589.94" y2="589.94"/><rect fill="none" height="6" style="stroke:#C82930;stroke-width:1.0;" width="6" x="3233" y="600.9473"/><text fill="#000000" font-family="sans-serif" font-size="14" lengthAdjust="spacing" textLength="171" x="3245" y="608.0152">mStopThreadPool : bool</text><rect fill="none" height="6" style="stroke:#C82930;stroke-width:1.0;" width="6" x="3233" y="617.962"/><text fill="#000000" font-family="sans-serif" font-size="14" lengthAdjust="spacing" textLength="312" x="3245" y="625.0298">mConditionVariable : std::condition_variable</text><rect fill="none" height="6" style="stroke:#C82930;stroke-width:1.0;" width="6" x="3233" y="634.9766"/><text fill="#000000" font-family="sans-serif" font-size="14" lengthAdjust="spacing" textLength="152" x="3245" y="642.0445">mMutex : std::mutex</text><rect fill="none" height="6" style="stroke:#C82930;stroke-width:1.0;" width="6" x="3233" y="651.9913"/><text fill="#000000" font-family="sans-serif" font-size="14" lengthAdjust="spacing" textLength="268" x="3245" y="659.0591">mThreads : std::vector&lt;std::thread&gt;</text><line style="stroke:#181818;stroke-width:0.5;" x1="3226" x2="3948" y1="665.9986" y2="665.9986"/><ellipse cx="3236" cy="680.0059" fill="#84BE84" rx="3" ry="3" style="stroke:#038048;stroke-width:1.0;"/><text fill="#000000" font-family="sans-serif" font-size="14" lengthAdjust="spacing" textLength="226" x="3245" y="684.0738">ThreadPool(size_t threadCount)</text><rect fill="#F24D5C" height="6" style="stroke:#C82930;stroke-width:1.0;" width="6" x="3233" y="694.0206"/><text fill="#000000" font-family="sans-serif" font-size="14" lengthAdjust="spacing" textLength="109" x="3245" y="701.0884">function&lt;void()</text><ellipse cx="3236" cy="714.0352" fill="#84BE84" rx="3" ry="3" style="stroke:#038048;stroke-width:1.0;"/><text fill="#000000" font-family="sans-serif" font-size="14" lengthAdjust="spacing" textLength="101" x="3245" y="718.1031">~ThreadPool()</text><ellipse cx="3236" cy="731.0499" fill="#84BE84" rx="3" ry="3" style="stroke:#038048;stroke-width:1.0;"/><text fill="#000000" font-family="sans-serif" font-size="14" lengthAdjust="spacing" textLength="698" x="3245" y="735.1177">result_of_t&lt;F(Args ... )&gt;&gt;execute ( F&amp;&amp; f, Args&amp;&amp; ... args) : requires std::invocable&lt;F , Args ...&gt;</text></g><!--class Callback--><g id="elem_Callback"><rect codeLine="65" fill="#F1F1F1" height="269.1904" id="Callback" rx="2.5" ry="2.5" style="stroke:#181818;stroke-width:0.5;" width="652" x="2509" y="515.5"/><ellipse cx="2802.75" cy="531.5" fill="#ADD1B2" rx="11" ry="11" style="stroke:#181818;stroke-width:1.0;"/><path d="M2806.9063,537.0469 Q2805.2188,538.2188 2803.2813,538.2188 Q2800.8438,538.2188 2799.5625,536.5469 Q2798.2969,534.875 2798.2969,531.7969 Q2798.2969,528.8438 2799.5313,527.1094 Q2800.7656,525.375 2803.2813,525.375 Q2804.1875,525.375 2805.0625,525.6094 Q2805.9531,525.8438 2806.7188,526.3906 L2806.0313,528.0625 Q2804.5938,527.2656 2803.2813,527.2656 Q2801.8594,527.2656 2801.1406,528.3281 Q2800.4375,529.375 2800.4375,531.7969 Q2800.4375,536.3438 2803.2813,536.3438 Q2804.5469,536.3438 2806.2344,535.3594 L2806.9063,537.0469 Z " fill="#000000"/><text fill="#000000" font-family="sans-serif" font-size="14" lengthAdjust="spacing" textLength="56" x="2823.25" y="537.0679">Callback</text><line style="stroke:#181818;stroke-width:0.5;" x1="2510" x2="3160" y1="547.5" y2="547.5"/><rect fill="none" height="6" style="stroke:#C82930;stroke-width:1.0;" width="6" x="2517" y="558.5073"/><text fill="#000000" font-family="sans-serif" font-size="14" lengthAdjust="spacing" textLength="213" x="2529" y="565.5752">mMutex : mutable std::mutex</text><rect fill="none" height="6" style="stroke:#C82930;stroke-width:1.0;" width="6" x="2517" y="575.522"/><text fill="#000000" font-family="sans-serif" font-size="14" lengthAdjust="spacing" textLength="312" x="2529" y="582.5898">mConditionVariable : std::condition_variable</text><rect fill="none" height="6" style="stroke:#C82930;stroke-width:1.0;" width="6" x="2517" y="592.5366"/><text fill="#000000" font-family="sans-serif" font-size="14" lengthAdjust="spacing" textLength="272" x="2529" y="599.6045">mMessages : std::queue&lt;Message_t&gt;</text><rect fill="none" height="6" style="stroke:#C82930;stroke-width:1.0;" width="6" x="2517" y="609.5513"/><text fill="#000000" font-family="sans-serif" font-size="14" lengthAdjust="spacing" textLength="189" x="2529" y="616.6191">mOwnerName : std::string</text><line style="stroke:#181818;stroke-width:0.5;" x1="2510" x2="3160" y1="623.5586" y2="623.5586"/><ellipse cx="2520" cy="637.5659" fill="#84BE84" rx="3" ry="3" style="stroke:#038048;stroke-width:1.0;"/><text fill="#000000" font-family="sans-serif" font-size="14" lengthAdjust="spacing" textLength="246" x="2529" y="641.6338">Callback(const std::string&amp; owner)</text><ellipse cx="2520" cy="654.5806" fill="#84BE84" rx="3" ry="3" style="stroke:#038048;stroke-width:1.0;"/><text fill="#000000" font-family="sans-serif" font-size="14" lengthAdjust="spacing" textLength="79" x="2529" y="658.6484">~Callback()</text><ellipse cx="2520" cy="671.5952" fill="#84BE84" rx="3" ry="3" style="stroke:#038048;stroke-width:1.0;"/><text fill="#000000" font-family="sans-serif" font-size="14" lengthAdjust="spacing" textLength="165" x="2529" y="675.6631">empty() : bool {query}</text><ellipse cx="2520" cy="688.6099" fill="#84BE84" rx="3" ry="3" style="stroke:#038048;stroke-width:1.0;"/><text fill="#000000" font-family="sans-serif" font-size="14" lengthAdjust="spacing" textLength="160" x="2529" y="692.6777">size() : size_t {query}</text><ellipse cx="2520" cy="705.6245" fill="#84BE84" rx="3" ry="3" style="stroke:#038048;stroke-width:1.0;"/><text fill="#000000" font-family="sans-serif" font-size="14" lengthAdjust="spacing" textLength="584" x="2529" y="709.6924">operator&lt;&lt;(std::ostream&amp; ostr, const Callback::SharedPtr&amp; cb) : std :: ostream&amp;</text><ellipse cx="2520" cy="722.6392" fill="#84BE84" rx="3" ry="3" style="stroke:#038048;stroke-width:1.0;"/><text fill="#000000" font-family="sans-serif" font-size="14" lengthAdjust="spacing" textLength="243" x="2529" y="726.707">pop() : std::optional&lt;Message_t&gt;</text><ellipse cx="2520" cy="739.6538" fill="#84BE84" rx="3" ry="3" style="stroke:#038048;stroke-width:1.0;"/><text fill="#000000" font-family="sans-serif" font-size="14" lengthAdjust="spacing" textLength="262" x="2529" y="743.7217">tryPop() : std::optional&lt;Message_t&gt;</text><ellipse cx="2520" cy="756.6685" fill="#84BE84" rx="3" ry="3" style="stroke:#038048;stroke-width:1.0;"/><text fill="#000000" font-family="sans-serif" font-size="14" lengthAdjust="spacing" textLength="89" x="2529" y="760.7363">clear() : void</text><ellipse cx="2520" cy="773.6831" fill="#84BE84" rx="3" ry="3" style="stroke:#038048;stroke-width:1.0;"/><text fill="#000000" font-family="sans-serif" font-size="14" lengthAdjust="spacing" textLength="626" x="2529" y="777.751">notify(TaskId_t taskId, CallbackMessageType_t type, const std::string&amp; message) : void</text></g><!--class CallbackMessageType_t--><g id="elem_CallbackMessageType_t"><rect codeLine="81" fill="#F1F1F1" height="82.0293" id="CallbackMessageType_t" rx="2.5" ry="2.5" style="stroke:#181818;stroke-width:0.5;" width="197" x="2736.5" y="848.5"/><ellipse cx="2751.5" cy="864.5" fill="#EB937F" rx="11" ry="11" style="stroke:#181818;stroke-width:1.0;"/><path d="M2755.4375,871 L2748.625,871 L2748.625,858.5938 L2755.375,858.5938 L2755.375,860.4688 L2750.6719,860.4688 L2750.6719,863.4219 L2755.2031,863.4219 L2755.2031,865.2813 L2750.6719,865.2813 L2750.6719,869.125 L2755.4375,869.125 L2755.4375,871 Z " fill="#000000"/><text fill="#000000" font-family="sans-serif" font-size="14" lengthAdjust="spacing" textLength="165" x="2765.5" y="870.0679">CallbackMessageType_t</text><line style="stroke:#181818;stroke-width:0.5;" x1="2737.5" x2="2932.5" y1="880.5" y2="880.5"/><text fill="#000000" font-family="sans-serif" font-size="14" lengthAdjust="spacing" textLength="103" x="2742.5" y="898.5752">NOTIFICATION</text><text fill="#000000" font-family="sans-serif" font-size="14" lengthAdjust="spacing" textLength="56" x="2742.5" y="915.5898">RESULT</text><line style="stroke:#181818;stroke-width:0.5;" x1="2737.5" x2="2932.5" y1="922.5293" y2="922.5293"/></g><!--class ExecutionMode_t--><g id="elem_ExecutionMode_t"><rect codeLine="86" fill="#F1F1F1" height="82.0293" id="ExecutionMode_t" rx="2.5" ry="2.5" style="stroke:#181818;stroke-width:0.5;" width="153" x="2312.5" y="608.99"/><ellipse cx="2327.5" cy="624.99" fill="#EB937F" rx="11" ry="11" style="stroke:#181818;stroke-width:1.0;"/><path d="M2331.4375,631.49 L2324.625,631.49 L2324.625,619.0838 L2331.375,619.0838 L2331.375,620.9588 L2326.6719,620.9588 L2326.6719,623.9119 L2331.2031,623.9119 L2331.2031,625.7713 L2326.6719,625.7713 L2326.6719,629.615 L2331.4375,629.615 L2331.4375,631.49 Z " fill="#000000"/><text fill="#000000" font-family="sans-serif" font-size="14" lengthAdjust="spacing" textLength="121" x="2341.5" y="630.5579">ExecutionMode_t</text><line style="stroke:#181818;stroke-width:0.5;" x1="2313.5" x2="2464.5" y1="640.99" y2="640.99"/><text fill="#000000" font-family="sans-serif" font-size="14" lengthAdjust="spacing" textLength="42" x="2318.5" y="659.0652">Async</text><text fill="#000000" font-family="sans-serif" font-size="14" lengthAdjust="spacing" textLength="58" x="2318.5" y="676.0798">Blocking</text><line style="stroke:#181818;stroke-width:0.5;" x1="2313.5" x2="2464.5" y1="683.0193" y2="683.0193"/></g><!--class Callback::Message_t--><g id="elem_Callback::Message_t"><rect codeLine="91" fill="#F1F1F1" height="116.0586" id="Callback::Message_t" rx="2.5" ry="2.5" style="stroke:#181818;stroke-width:0.5;" width="254" x="2023" y="591.97"/><ellipse cx="2074.25" cy="607.97" fill="#ADD1B2" rx="11" ry="11" style="stroke:#181818;stroke-width:1.0;"/><path d="M2078.4063,613.5169 Q2076.7188,614.6888 2074.7813,614.6888 Q2072.3438,614.6888 2071.0625,613.0169 Q2069.7969,611.345 2069.7969,608.2669 Q2069.7969,605.3138 2071.0313,603.5794 Q2072.2656,601.845 2074.7813,601.845 Q2075.6875,601.845 2076.5625,602.0794 Q2077.4531,602.3138 2078.2188,602.8606 L2077.5313,604.5325 Q2076.0938,603.7356 2074.7813,603.7356 Q2073.3594,603.7356 2072.6406,604.7981 Q2071.9375,605.845 2071.9375,608.2669 Q2071.9375,612.8138 2074.7813,612.8138 Q2076.0469,612.8138 2077.7344,611.8294 L2078.4063,613.5169 Z " fill="#000000"/><text fill="#000000" font-family="sans-serif" font-size="14" lengthAdjust="spacing" textLength="143" x="2094.75" y="613.5379">Callback::Message_t</text><line style="stroke:#181818;stroke-width:0.5;" x1="2024" x2="2276" y1="623.97" y2="623.97"/><ellipse cx="2034" cy="637.9773" fill="none" rx="3" ry="3" style="stroke:#038048;stroke-width:1.0;"/><text fill="#000000" font-family="sans-serif" font-size="14" lengthAdjust="spacing" textLength="228" x="2043" y="642.0452">mType : CallbackMessageType_t</text><ellipse cx="2034" cy="654.992" fill="none" rx="3" ry="3" style="stroke:#038048;stroke-width:1.0;"/><text fill="#000000" font-family="sans-serif" font-size="14" lengthAdjust="spacing" textLength="162" x="2043" y="659.0598">mTime : ChronoTime_t</text><ellipse cx="2034" cy="672.0066" fill="none" rx="3" ry="3" style="stroke:#038048;stroke-width:1.0;"/><text fill="#000000" font-family="sans-serif" font-size="14" lengthAdjust="spacing" textLength="138" x="2043" y="676.0745">mTaskId : TaskId_t</text><ellipse cx="2034" cy="689.0213" fill="none" rx="3" ry="3" style="stroke:#038048;stroke-width:1.0;"/><text fill="#000000" font-family="sans-serif" font-size="14" lengthAdjust="spacing" textLength="137" x="2043" y="693.0891">mText : std::string</text><line style="stroke:#181818;stroke-width:0.5;" x1="2024" x2="2276" y1="700.0286" y2="700.0286"/></g><!--class Receipt--><g id="elem_Receipt"><rect codeLine="100" fill="#F1F1F1" height="269.1904" id="Receipt" rx="2.5" ry="2.5" style="stroke:#181818;stroke-width:0.5;" width="367" x="1453.5" y="178.5"/><ellipse cx="1607.25" cy="194.5" fill="#ADD1B2" rx="11" ry="11" style="stroke:#181818;stroke-width:1.0;"/><path d="M1611.4063,200.0469 Q1609.7188,201.2188 1607.7813,201.2188 Q1605.3438,201.2188 1604.0625,199.5469 Q1602.7969,197.875 1602.7969,194.7969 Q1602.7969,191.8438 1604.0313,190.1094 Q1605.2656,188.375 1607.7813,188.375 Q1608.6875,188.375 1609.5625,188.6094 Q1610.4531,188.8438 1611.2188,189.3906 L1610.5313,191.0625 Q1609.0938,190.2656 1607.7813,190.2656 Q1606.3594,190.2656 1605.6406,191.3281 Q1604.9375,192.375 1604.9375,194.7969 Q1604.9375,199.3438 1607.7813,199.3438 Q1609.0469,199.3438 1610.7344,198.3594 L1611.4063,200.0469 Z " fill="#000000"/><text fill="#000000" font-family="sans-serif" font-size="14" lengthAdjust="spacing" textLength="51" x="1627.75" y="200.0679">Receipt</text><line style="stroke:#181818;stroke-width:0.5;" x1="1454.5" x2="1819.5" y1="210.5" y2="210.5"/><rect fill="none" height="6" style="stroke:#C82930;stroke-width:1.0;" width="6" x="1461.5" y="221.5073"/><text fill="#000000" font-family="sans-serif" font-size="14" lengthAdjust="spacing" textLength="189" x="1473.5" y="228.5752">mEndTime : ChronoTime_t</text><rect fill="none" height="6" style="stroke:#C82930;stroke-width:1.0;" width="6" x="1461.5" y="238.522"/><text fill="#000000" font-family="sans-serif" font-size="14" lengthAdjust="spacing" textLength="198" x="1473.5" y="245.5898">mStartTime : ChronoTime_t</text><rect fill="none" height="6" style="stroke:#C82930;stroke-width:1.0;" width="6" x="1461.5" y="255.5366"/><text fill="#000000" font-family="sans-serif" font-size="14" lengthAdjust="spacing" textLength="138" x="1473.5" y="262.6045">mStatus : Status_t</text><rect fill="none" height="6" style="stroke:#C82930;stroke-width:1.0;" width="6" x="1461.5" y="272.5513"/><text fill="#000000" font-family="sans-serif" font-size="14" lengthAdjust="spacing" textLength="231" x="1473.5" y="279.6191">mMode : const ExecutionMode_t</text><rect fill="none" height="6" style="stroke:#C82930;stroke-width:1.0;" width="6" x="1461.5" y="289.5659"/><text fill="#000000" font-family="sans-serif" font-size="14" lengthAdjust="spacing" textLength="182" x="1473.5" y="296.6338">mTaskId : const TaskId_t</text><line style="stroke:#181818;stroke-width:0.5;" x1="1454.5" x2="1819.5" y1="303.5732" y2="303.5732"/><ellipse cx="1464.5" cy="317.5806" fill="#84BE84" rx="3" ry="3" style="stroke:#038048;stroke-width:1.0;"/><text fill="#000000" font-family="sans-serif" font-size="14" lengthAdjust="spacing" textLength="228" x="1473.5" y="321.6484">Receipt(ExecutionMode_t mode)</text><ellipse cx="1464.5" cy="334.5952" fill="#84BE84" rx="3" ry="3" style="stroke:#038048;stroke-width:1.0;"/><text fill="#000000" font-family="sans-serif" font-size="14" lengthAdjust="spacing" textLength="284" x="1473.5" y="338.6631">getEndTime() : ChronoTime_t&amp; {query}</text><ellipse cx="1464.5" cy="351.6099" fill="#84BE84" rx="3" ry="3" style="stroke:#038048;stroke-width:1.0;"/><text fill="#000000" font-family="sans-serif" font-size="14" lengthAdjust="spacing" textLength="293" x="1473.5" y="355.6777">getStartTime() : ChronoTime_t&amp; {query}</text><ellipse cx="1464.5" cy="368.6245" fill="#84BE84" rx="3" ry="3" style="stroke:#038048;stroke-width:1.0;"/><text fill="#000000" font-family="sans-serif" font-size="14" lengthAdjust="spacing" textLength="341" x="1473.5" y="372.6924">getExecutionMode() : ExecutionMode_t {query}</text><ellipse cx="1464.5" cy="385.6392" fill="#84BE84" rx="3" ry="3" style="stroke:#038048;stroke-width:1.0;"/><text fill="#000000" font-family="sans-serif" font-size="14" lengthAdjust="spacing" textLength="223" x="1473.5" y="389.707">getTaskId() : TaskId_t {query}</text><ellipse cx="1464.5" cy="402.6538" fill="#84BE84" rx="3" ry="3" style="stroke:#038048;stroke-width:1.0;"/><text fill="#000000" font-family="sans-serif" font-size="14" lengthAdjust="spacing" textLength="179" x="1473.5" y="406.7217">getStatus() : int {query}</text><ellipse cx="1464.5" cy="419.6685" fill="#84BE84" rx="3" ry="3" style="stroke:#038048;stroke-width:1.0;"/><text fill="#000000" font-family="sans-serif" font-size="14" lengthAdjust="spacing" textLength="139" x="1473.5" y="423.7363">setEndTime() : void</text><ellipse cx="1464.5" cy="436.6831" fill="#84BE84" rx="3" ry="3" style="stroke:#038048;stroke-width:1.0;"/><text fill="#000000" font-family="sans-serif" font-size="14" lengthAdjust="spacing" textLength="238" x="1473.5" y="440.751">setStatus(Status_t status) : void</text></g><!--class Task--><g id="elem_Task"><rect codeLine="116" fill="#F1F1F1" height="65.0146" id="Task" rx="2.5" ry="2.5" style="stroke:#181818;stroke-width:0.5;" width="362" x="848" y="280.5"/><ellipse cx="1008.25" cy="296.5" fill="#ADD1B2" rx="11" ry="11" style="stroke:#181818;stroke-width:1.0;"/><path d="M1012.4063,302.0469 Q1010.7188,303.2188 1008.7813,303.2188 Q1006.3438,303.2188 1005.0625,301.5469 Q1003.7969,299.875 1003.7969,296.7969 Q1003.7969,293.8438 1005.0313,292.1094 Q1006.2656,290.375 1008.7813,290.375 Q1009.6875,290.375 1010.5625,290.6094 Q1011.4531,290.8438 1012.2188,291.3906 L1011.5313,293.0625 Q1010.0938,292.2656 1008.7813,292.2656 Q1007.3594,292.2656 1006.6406,293.3281 Q1005.9375,294.375 1005.9375,296.7969 Q1005.9375,301.3438 1008.7813,301.3438 Q1010.0469,301.3438 1011.7344,300.3594 L1012.4063,302.0469 Z " fill="#000000"/><text fill="#000000" font-family="sans-serif" font-size="14" lengthAdjust="spacing" textLength="33" x="1028.75" y="302.0679">Task</text><line style="stroke:#181818;stroke-width:0.5;" x1="849" x2="1209" y1="312.5" y2="312.5"/><rect fill="none" height="6" style="stroke:#C82930;stroke-width:1.0;" width="6" x="856" y="323.5073"/><text fill="#000000" font-family="sans-serif" font-size="14" lengthAdjust="spacing" textLength="336" x="868" y="330.5752">mTaskConfiguration : std::vector&lt;TaskConfig&gt;</text><line style="stroke:#181818;stroke-width:0.5;" x1="849" x2="1209" y1="337.5146" y2="337.5146"/></g><!--class Receipt::Status_t--><g id="elem_Receipt::Status_t"><rect codeLine="120" fill="#F1F1F1" height="82.0293" id="Receipt::Status_t" rx="2.5" ry="2.5" style="stroke:#181818;stroke-width:0.5;" width="157" x="1253.5" y="271.99"/><ellipse cx="1268.5" cy="287.99" fill="#EB937F" rx="11" ry="11" style="stroke:#181818;stroke-width:1.0;"/><path d="M1272.4375,294.49 L1265.625,294.49 L1265.625,282.0838 L1272.375,282.0838 L1272.375,283.9588 L1267.6719,283.9588 L1267.6719,286.9119 L1272.2031,286.9119 L1272.2031,288.7713 L1267.6719,288.7713 L1267.6719,292.615 L1272.4375,292.615 L1272.4375,294.49 Z " fill="#000000"/><text fill="#000000" font-family="sans-serif" font-size="14" lengthAdjust="spacing" textLength="125" x="1282.5" y="293.5579">Receipt::Status_t</text><line style="stroke:#181818;stroke-width:0.5;" x1="1254.5" x2="1409.5" y1="303.99" y2="303.99"/><text fill="#000000" font-family="sans-serif" font-size="14" lengthAdjust="spacing" textLength="31" x="1259.5" y="322.0652">FAIL</text><text fill="#000000" font-family="sans-serif" font-size="14" lengthAdjust="spacing" textLength="21" x="1259.5" y="339.0798">OK</text><line style="stroke:#181818;stroke-width:0.5;" x1="1254.5" x2="1409.5" y1="346.0193" y2="346.0193"/></g><!--class TaskName--><g id="elem_TaskName"><rect codeLine="125" fill="#F1F1F1" height="99.0439" id="TaskName" rx="2.5" ry="2.5" style="stroke:#181818;stroke-width:0.5;" width="104" x="1863" y="263.48"/><ellipse cx="1878" cy="279.48" fill="#EB937F" rx="11" ry="11" style="stroke:#181818;stroke-width:1.0;"/><path d="M1881.9375,285.98 L1875.125,285.98 L1875.125,273.5738 L1881.875,273.5738 L1881.875,275.4488 L1877.1719,275.4488 L1877.1719,278.4019 L1881.7031,278.4019 L1881.7031,280.2613 L1877.1719,280.2613 L1877.1719,284.105 L1881.9375,284.105 L1881.9375,285.98 Z " fill="#000000"/><text fill="#000000" font-family="sans-serif" font-size="14" lengthAdjust="spacing" textLength="72" x="1892" y="285.0479">TaskName</text><line style="stroke:#181818;stroke-width:0.5;" x1="1864" x2="1966" y1="295.48" y2="295.48"/><text fill="#000000" font-family="sans-serif" font-size="14" lengthAdjust="spacing" textLength="82" x="1869" y="313.5552">BlockMe_3s</text><text fill="#000000" font-family="sans-serif" font-size="14" lengthAdjust="spacing" textLength="11" x="1869" y="330.5698">Pi</text><text fill="#000000" font-family="sans-serif" font-size="14" lengthAdjust="spacing" textLength="75" x="1869" y="347.5845">PingMe_5x</text><line style="stroke:#181818;stroke-width:0.5;" x1="1864" x2="1966" y1="354.5239" y2="354.5239"/></g><!--class Task::TaskConfig--><g id="elem_Task::TaskConfig"><rect codeLine="131" fill="#F1F1F1" height="48" id="Task::TaskConfig" rx="2.5" ry="2.5" style="stroke:#181818;stroke-width:0.5;" width="155" x="1254.5" y="626"/><ellipse cx="1269.5" cy="642" fill="#ADD1B2" rx="11" ry="11" style="stroke:#181818;stroke-width:1.0;"/><path d="M1273.6563,647.5469 Q1271.9688,648.7188 1270.0313,648.7188 Q1267.5938,648.7188 1266.3125,647.0469 Q1265.0469,645.375 1265.0469,642.2969 Q1265.0469,639.3438 1266.2813,637.6094 Q1267.5156,635.875 1270.0313,635.875 Q1270.9375,635.875 1271.8125,636.1094 Q1272.7031,636.3438 1273.4688,636.8906 L1272.7813,638.5625 Q1271.3438,637.7656 1270.0313,637.7656 Q1268.6094,637.7656 1267.8906,638.8281 Q1267.1875,639.875 1267.1875,642.2969 Q1267.1875,646.8438 1270.0313,646.8438 Q1271.2969,646.8438 1272.9844,645.8594 L1273.6563,647.5469 Z " fill="#000000"/><text fill="#000000" font-family="sans-serif" font-size="14" lengthAdjust="spacing" textLength="123" x="1283.5" y="647.5679">Task::TaskConfig</text><line style="stroke:#181818;stroke-width:0.5;" x1="1255.5" x2="1408.5" y1="658" y2="658"/><line style="stroke:#181818;stroke-width:0.5;" x1="1255.5" x2="1408.5" y1="666" y2="666"/></g><!--class scoped_logger--><g id="elem_scoped_logger"><rect codeLine="8" fill="#F1F1F1" height="116.0586" id="scoped_logger" rx="2.5" ry="2.5" style="stroke:#181818;stroke-width:0.5;" width="618" x="4005" y="254.97"/><ellipse cx="4258.25" cy="270.97" fill="#ADD1B2" rx="11" ry="11" style="stroke:#181818;stroke-width:1.0;"/><path d="M4262.4063,276.5169 Q4260.7188,277.6888 4258.7813,277.6888 Q4256.3438,277.6888 4255.0625,276.0169 Q4253.7969,274.345 4253.7969,271.2669 Q4253.7969,268.3138 4255.0313,266.5794 Q4256.2656,264.845 4258.7813,264.845 Q4259.6875,264.845 4260.5625,265.0794 Q4261.4531,265.3138 4262.2188,265.8606 L4261.5313,267.5325 Q4260.0938,266.7356 4258.7813,266.7356 Q4257.3594,266.7356 4256.6406,267.7981 Q4255.9375,268.845 4255.9375,271.2669 Q4255.9375,275.8138 4258.7813,275.8138 Q4260.0469,275.8138 4261.7344,274.8294 L4262.4063,276.5169 Z " fill="#000000"/><text fill="#000000" font-family="sans-serif" font-size="14" lengthAdjust="spacing" textLength="103" x="4278.75" y="276.5379">scoped_logger</text><line style="stroke:#181818;stroke-width:0.5;" x1="4006" x2="4622" y1="286.97" y2="286.97"/><rect fill="none" height="6" style="stroke:#C82930;stroke-width:1.0;" width="6" x="4013" y="297.9773"/><text fill="#000000" font-family="sans-serif" font-size="14" lengthAdjust="spacing" textLength="166" x="4025" y="305.0452">_ss : std::stringstream</text><line style="stroke:#181818;stroke-width:0.5;" x1="4006" x2="4622" y1="311.9846" y2="311.9846"/><ellipse cx="4016" cy="325.992" fill="#84BE84" rx="3" ry="3" style="stroke:#038048;stroke-width:1.0;"/><text fill="#000000" font-family="sans-serif" font-size="14" lengthAdjust="spacing" textLength="592" x="4025" y="330.0598">scoped_logger(const std::string&amp; className, const char* funcName, unsigned line)</text><ellipse cx="4016" cy="343.0066" fill="#84BE84" rx="3" ry="3" style="stroke:#038048;stroke-width:1.0;"/><text fill="#000000" font-family="sans-serif" font-size="14" lengthAdjust="spacing" textLength="126" x="4025" y="347.0745">~scoped_logger()</text><ellipse cx="4016" cy="360.0213" fill="#84BE84" rx="3" ry="3" style="stroke:#038048;stroke-width:1.0;"/><text fill="#000000" font-family="sans-serif" font-size="14" lengthAdjust="spacing" textLength="212" x="4025" y="364.0891">stream() : std::stringstream&amp;</text></g><!--reverse link Callback to CallbackMessageType_t--><g id="link_Callback_CallbackMessageType_t"><path codeLine="147" d="M3174.39,599.74 C3200.95,628.6 3183.86,757.74 3161,788.5 C3133.59,825.38 3019.53,854.32 2934,871.37 " fill="none" id="Callback-backto-CallbackMessageType_t" style="stroke:#181818;stroke-width:1.0;"/><polygon fill="#181818" points="3163,594,3166.7668,600.1491,3173.8917,599.0371,3170.1248,592.888,3163,594" style="stroke:#181818;stroke-width:1.0;"/></g><!--reverse link Receipt to ExecutionMode_t--><g id="link_Receipt_ExecutionMode_t"><path codeLine="150" d="M1841.3,449.96 C1842.87,450.49 1844.43,451 1846,451.5 C1893.56,466.67 2252.82,440.8 2295,467.5 C2344.62,498.91 2369.37,565.56 2380.67,608.77 " fill="none" id="Receipt-backto-ExecutionMode_t" style="stroke:#181818;stroke-width:1.0;"/><polygon fill="#181818" points="1829.35,445.24,1833.6152,451.0544,1840.6229,449.3536,1836.3577,443.5392,1829.35,445.24" style="stroke:#181818;stroke-width:1.0;"/></g><!--reverse link ThreadPoolTest to ThreadPool--><g id="link_ThreadPoolTest_ThreadPool"><path codeLine="153" d="M3536.62,393.3 C3546.34,442.64 3558.88,506.26 3569.01,557.7 " fill="none" id="ThreadPoolTest-backto-ThreadPool" style="stroke:#181818;stroke-width:1.0;"/><polygon fill="#181818" points="3533.96,380.79,3531.1957,387.4502,3536.2804,392.5635,3539.0447,385.9033,3533.96,380.79" style="stroke:#181818;stroke-width:1.0;"/></g><!--reverse link Callback to Callback--><g id="link_Callback_Callback"><path codeLine="162" d="M2848.1,495.59 C2848.49,438.57 2844.13,391.74 2835,391.74 C2818.06,391.74 2817.52,500.55 2833.36,585.59 " fill="none" id="Callback-backto-Callback" style="stroke:#181818;stroke-width:1.0;"/><ellipse cx="2847.9843" cy="502.5108" fill="#FFFFFF" rx="8" ry="8" style="stroke:#181818;stroke-width:1.0;"/><line style="stroke:#181818;stroke-width:1.0;" x1="2848.0985" x2="2847.87" y1="494.5116" y2="510.51"/><line style="stroke:#181818;stroke-width:1.0;" x1="2855.9835" x2="2839.9851" y1="502.6251" y2="502.3965"/></g><!--reverse link Receipt to Receipt--><g id="link_Receipt_Receipt"><path codeLine="165" d="M1649.64,158.99 C1651.64,78.63 1647.42,6 1637,6 C1619.98,6 1619.51,146.65 1635.6,248.51 " fill="none" id="Receipt-backto-Receipt" style="stroke:#181818;stroke-width:1.0;"/><ellipse cx="1649.4061" cy="165.8835" fill="#FFFFFF" rx="8" ry="8" style="stroke:#181818;stroke-width:1.0;"/><line style="stroke:#181818;stroke-width:1.0;" x1="1649.6422" x2="1649.17" y1="157.887" y2="173.88"/><line style="stroke:#181818;stroke-width:1.0;" x1="1657.4026" x2="1641.4096" y1="166.1196" y2="165.6474"/></g><!--reverse link Task to Task--><g id="link_Task_Task"><path codeLine="168" d="M1037.93,260.9 C1045.67,191.74 1042.7,108 1029,108 C1012.18,108 1011.53,245.28 1027.03,316.64 " fill="none" id="Task-backto-Task" style="stroke:#181818;stroke-width:1.0;"/><ellipse cx="1036.9188" cy="267.8126" fill="#FFFFFF" rx="8" ry="8" style="stroke:#181818;stroke-width:1.0;"/><line style="stroke:#181818;stroke-width:1.0;" x1="1037.9177" x2="1035.92" y1="259.8752" y2="275.75"/><line style="stroke:#181818;stroke-width:1.0;" x1="1044.8562" x2="1028.9814" y1="268.8114" y2="266.8138"/></g><!--SRC=[nLPRRoet47uEly9I9K8E2NdevG4X94g3X7e2A73wYiokMTpisdjiRngASdvxPyPx1zggB-M1jJtVUBwPyOpzUCkMkzz5u2oxVUnqWfXRosoWKn5kOnr5mh1JvwRVMEa5Mbd7h0k7G-kCL56NaUA29-AUUMbmuEOJssSgyAkPiZ9I8cInLE8EjlpMt1EM7hPWUrZV5_u5Jz0-3NftbyJTpaUdqr5WnQOy42n8Gi-Qxm300-V9iVbKAsTq7FDTB3O7K0qHTTC_5S0F5WctTjnbban9vTZfQoRCyQE5iuuRHvWtBSCpeKvhCc1tHWMDh8n-apdLzkPkePtSou0xgTMbUAkQ70ECvZBW-zCFsnfdD2rKbZ3l55cQA-dWyv8f-5-Z7_JLgOTNSNHW4nKyvGsthnkHBzryjnRkIzr9M3eXRnbyC98XTfr99vgWZU3c5_s7kg9QY2zg8xs23QLlfNLSuvHKgyKvoPI4M6nJPqQLSFm_Uj2ECT2nzIXN7f1F_MgXP-MV0fBhQ6MgC-Nk4FA0DOR7O8H6UhJM_rRJywW4Kzm8q0u-13R2Ph7RwltMZMQzYOai6mm6x6uy5kyYo9nWFJRhTjd-dg4GHYZcC4JNZFYQITZ21rogDnrWWOrcpCCHFFOKe013YLH_uqOYg4XJK0YsRxd4Apo3yVS2bE34hti_ocRn1lrBcn6DVNZ6bu8Tw2JHgXRjAO_Z7GzUyrWNqqlr1XaL9ezjYVDpaQJkI5dUKTxAXb5p0BYJlqr7-fXItzHyRckwVMYEXgDRenvfwRpRCHmKNRQWCXokeT-ASEKCzE9TtYVPSCWAjV-KWNwQTpBF84K0ZqVFmbeU0M7AQz-Pu-fVu20QVbxc3RpDn1bgYQ76djPizcGgYA6y6fNNfqvux65_ceTO7pIuBqEJRxyvfbGzy2c2rqXmuc7jTaFTy_9MT6WMoyryDfzEDlFb0kSlJ-ildpSDxISg8eZ8imvBlOazgW07FySwUFNkrVfRbTSoElaXJT0waBp8AKT8YjtqOBJIE2a551eG5S7AbyMxEulrMVM04LM_45v486HQqCfdlRQp2Npo1lIamYlCi3d1FNIDDrpAkIvblYxlDah6tzv-et-6DgWI_2nJzLBEhz1XVfTMt7mmQOFo43QR0Em6Gd_eMZRoVbOancCQwVcx9mbqa6PioggmfLP1bvuLcRrodu95dqbF1lh4NaQPeVT5gyrMyd7ZdET705fHOP4sd4tcd_6x_BM1nbseo4zb5JoBxVSMPolf_rK4Ip- -drCT3YiIj06TLdm6mk_nbitLGHZfk89pQqHCNjY3JFqZrsCcKMH4v1qynz0ZSk1lZC6bQlpqyC0kWfe5MUn4rJCeQkPCkNqg2ZLuWmrQRvrAbnuFDN6dz7y1G7Xgw_hB_X9Nrh_cHStLApvKgetrAlqjFJfYRQLsCf7_Nm00]--></g></svg>