<?xml version="1.0" encoding="us-ascii" standalone="no"?><svg xmlns="http://www.w3.org/2000/svg" xmlns:xlink="http://www.w3.org/1999/xlink" contentStyleType="text/css" height="526px" preserveAspectRatio="none" style="width:1452px;height:526px;background:#FFFFFF;" version="1.1" viewBox="0 0 1452 526" width="1452px" zoomAndPan="magnify"><defs/><g><!--cluster cmder--><g id="cluster_cmder"><path d="M643.5,6 L692.5,6 A3.75,3.75 0 0 1 695,8.5 L702,29.0146 L1442.5,29.0146 A2.5,2.5 0 0 1 1445,31.5146 L1445,516.69 A2.5,2.5 0 0 1 1442.5,519.19 L643.5,519.19 A2.5,2.5 0 0 1 641,516.69 L641,8.5 A2.5,2.5 0 0 1 643.5,6 " fill="none" style="stroke:#000000;stroke-width:1.5;"/><line style="stroke:#000000;stroke-width:1.5;" x1="641" x2="702" y1="29.0146" y2="29.0146"/><text fill="#000000" font-family="sans-serif" font-size="14" font-weight="bold" lengthAdjust="spacing" textLength="48" x="645" y="22.0752">cmder</text></g><!--cluster tst--><g id="cluster_tst"><path d="M856.5,50 L877.5,50 A3.75,3.75 0 0 1 880,52.5 L887,73.0146 L1229.5,73.0146 A2.5,2.5 0 0 1 1232,75.5146 L1232,232.57 A2.5,2.5 0 0 1 1229.5,235.07 L856.5,235.07 A2.5,2.5 0 0 1 854,232.57 L854,52.5 A2.5,2.5 0 0 1 856.5,50 " fill="none" style="stroke:#000000;stroke-width:1.5;"/><line style="stroke:#000000;stroke-width:1.5;" x1="854" x2="887" y1="73.0146" y2="73.0146"/><text fill="#000000" font-family="sans-serif" font-size="14" font-weight="bold" lengthAdjust="spacing" textLength="20" x="858" y="66.0752">tst</text></g><!--cluster tools--><g id="cluster_tools"><path d="M667.5,259.07 L706.5,259.07 A3.75,3.75 0 0 1 709,261.57 L716,282.0846 L1418.5,282.0846 A2.5,2.5 0 0 1 1421,284.5846 L1421,492.69 A2.5,2.5 0 0 1 1418.5,495.19 L667.5,495.19 A2.5,2.5 0 0 1 665,492.69 L665,261.57 A2.5,2.5 0 0 1 667.5,259.07 " fill="none" style="stroke:#000000;stroke-width:1.5;"/><line style="stroke:#000000;stroke-width:1.5;" x1="665" x2="716" y1="282.0846" y2="282.0846"/><text fill="#000000" font-family="sans-serif" font-size="14" font-weight="bold" lengthAdjust="spacing" textLength="38" x="669" y="275.1452">tools</text></g><!--class ThreadPoolTest--><g id="elem_ThreadPoolTest"><rect codeLine="18" fill="#F1F1F1" height="133.0732" id="ThreadPoolTest" rx="2.5" ry="2.5" style="stroke:#181818;stroke-width:0.5;" width="345" x="870.5" y="86"/><ellipse cx="984.25" cy="102" fill="#ADD1B2" rx="11" ry="11" style="stroke:#181818;stroke-width:1.0;"/><path d="M988.4063,107.5469 Q986.7188,108.7188 984.7813,108.7188 Q982.3438,108.7188 981.0625,107.0469 Q979.7969,105.375 979.7969,102.2969 Q979.7969,99.3438 981.0313,97.6094 Q982.2656,95.875 984.7813,95.875 Q985.6875,95.875 986.5625,96.1094 Q987.4531,96.3438 988.2188,96.8906 L987.5313,98.5625 Q986.0938,97.7656 984.7813,97.7656 Q983.3594,97.7656 982.6406,98.8281 Q981.9375,99.875 981.9375,102.2969 Q981.9375,106.8438 984.7813,106.8438 Q986.0469,106.8438 987.7344,105.8594 L988.4063,107.5469 Z " fill="#000000"/><text fill="#000000" font-family="sans-serif" font-size="14" lengthAdjust="spacing" textLength="109" x="1004.75" y="107.5679">ThreadPoolTest</text><line style="stroke:#181818;stroke-width:0.5;" x1="871.5" x2="1214.5" y1="118" y2="118"/><polygon fill="none" points="881.5,127.0073,885.5,131.0073,881.5,135.0073,877.5,131.0073" style="stroke:#B38D22;stroke-width:1.0;"/><text fill="#000000" font-family="sans-serif" font-size="14" lengthAdjust="spacing" textLength="319" x="890.5" y="136.0752">mThreadPool : std::unique_ptr&lt;ThreadPool&gt;</text><line style="stroke:#181818;stroke-width:0.5;" x1="871.5" x2="1214.5" y1="143.0146" y2="143.0146"/><polygon fill="#FFFF44" points="881.5,152.022,885.5,156.022,881.5,160.022,877.5,156.022" style="stroke:#B38D22;stroke-width:1.0;"/><text fill="#000000" font-family="sans-serif" font-size="14" lengthAdjust="spacing" textLength="100" x="890.5" y="161.0898">SetUp() : void</text><polygon fill="#FFFF44" points="881.5,169.0366,885.5,173.0366,881.5,177.0366,877.5,173.0366" style="stroke:#B38D22;stroke-width:1.0;"/><text fill="#000000" font-family="sans-serif" font-size="14" lengthAdjust="spacing" text-decoration="underline" textLength="167" x="890.5" y="178.1045">SetUpTestSuite() : void</text><polygon fill="#FFFF44" points="881.5,186.0513,885.5,190.0513,881.5,194.0513,877.5,190.0513" style="stroke:#B38D22;stroke-width:1.0;"/><text fill="#000000" font-family="sans-serif" font-size="14" lengthAdjust="spacing" textLength="128" x="890.5" y="195.1191">TearDown() : void</text><polygon fill="#FFFF44" points="881.5,203.0659,885.5,207.0659,881.5,211.0659,877.5,207.0659" style="stroke:#B38D22;stroke-width:1.0;"/><text fill="#000000" font-family="sans-serif" font-size="14" lengthAdjust="spacing" text-decoration="underline" textLength="195" x="890.5" y="212.1338">TearDownTestSuite() : void</text></g><!--class ThreadPool--><g id="elem_ThreadPool"><rect codeLine="28" fill="#F1F1F1" height="184.1172" id="ThreadPool" rx="2.5" ry="2.5" style="stroke:#181818;stroke-width:0.5;" width="724" x="681" y="295.07"/><ellipse cx="999.75" cy="311.07" fill="#ADD1B2" rx="11" ry="11" style="stroke:#181818;stroke-width:1.0;"/><path d="M1003.9063,316.6169 Q1002.2188,317.7888 1000.2813,317.7888 Q997.8438,317.7888 996.5625,316.1169 Q995.2969,314.445 995.2969,311.3669 Q995.2969,308.4138 996.5313,306.6794 Q997.7656,304.945 1000.2813,304.945 Q1001.1875,304.945 1002.0625,305.1794 Q1002.9531,305.4138 1003.7188,305.9606 L1003.0313,307.6325 Q1001.5938,306.8356 1000.2813,306.8356 Q998.8594,306.8356 998.1406,307.8981 Q997.4375,308.945 997.4375,311.3669 Q997.4375,315.9138 1000.2813,315.9138 Q1001.5469,315.9138 1003.2344,314.9294 L1003.9063,316.6169 Z " fill="#000000"/><text fill="#000000" font-family="sans-serif" font-size="14" lengthAdjust="spacing" textLength="78" x="1020.25" y="316.6379">ThreadPool</text><line style="stroke:#181818;stroke-width:0.5;" x1="682" x2="1404" y1="327.07" y2="327.07"/><rect fill="none" height="6" style="stroke:#C82930;stroke-width:1.0;" width="6" x="689" y="338.0773"/><text fill="#000000" font-family="sans-serif" font-size="14" lengthAdjust="spacing" textLength="171" x="701" y="345.1452">mStopThreadPool : bool</text><rect fill="none" height="6" style="stroke:#C82930;stroke-width:1.0;" width="6" x="689" y="355.092"/><text fill="#000000" font-family="sans-serif" font-size="14" lengthAdjust="spacing" textLength="312" x="701" y="362.1598">mConditionVariable : std::condition_variable</text><rect fill="none" height="6" style="stroke:#C82930;stroke-width:1.0;" width="6" x="689" y="372.1066"/><text fill="#000000" font-family="sans-serif" font-size="14" lengthAdjust="spacing" textLength="152" x="701" y="379.1745">mMutex : std::mutex</text><rect fill="none" height="6" style="stroke:#C82930;stroke-width:1.0;" width="6" x="689" y="389.1213"/><text fill="#000000" font-family="sans-serif" font-size="14" lengthAdjust="spacing" textLength="268" x="701" y="396.1891">mThreads : std::vector&lt;std::thread&gt;</text><line style="stroke:#181818;stroke-width:0.5;" x1="682" x2="1404" y1="403.1286" y2="403.1286"/><ellipse cx="692" cy="417.1359" fill="#84BE84" rx="3" ry="3" style="stroke:#038048;stroke-width:1.0;"/><text fill="#000000" font-family="sans-serif" font-size="14" lengthAdjust="spacing" textLength="226" x="701" y="421.2038">ThreadPool(size_t threadCount)</text><rect fill="#F24D5C" height="6" style="stroke:#C82930;stroke-width:1.0;" width="6" x="689" y="431.1506"/><text fill="#000000" font-family="sans-serif" font-size="14" lengthAdjust="spacing" textLength="109" x="701" y="438.2184">function&lt;void()</text><ellipse cx="692" cy="451.1652" fill="#84BE84" rx="3" ry="3" style="stroke:#038048;stroke-width:1.0;"/><text fill="#000000" font-family="sans-serif" font-size="14" lengthAdjust="spacing" textLength="101" x="701" y="455.2331">~ThreadPool()</text><ellipse cx="692" cy="468.1799" fill="#84BE84" rx="3" ry="3" style="stroke:#038048;stroke-width:1.0;"/><text fill="#000000" font-family="sans-serif" font-size="14" lengthAdjust="spacing" textLength="698" x="701" y="472.2477">result_of_t&lt;F(Args ... )&gt;&gt;execute ( F&amp;&amp; f, Args&amp;&amp; ... args) : requires std::invocable&lt;F , Args ...&gt;</text></g><!--class scoped_logger--><g id="elem_scoped_logger"><rect codeLine="8" fill="#F1F1F1" height="116.0586" id="scoped_logger" rx="2.5" ry="2.5" style="stroke:#181818;stroke-width:0.5;" width="618" x="7" y="94.51"/><ellipse cx="260.25" cy="110.51" fill="#ADD1B2" rx="11" ry="11" style="stroke:#181818;stroke-width:1.0;"/><path d="M264.4063,116.0569 Q262.7188,117.2288 260.7813,117.2288 Q258.3438,117.2288 257.0625,115.5569 Q255.7969,113.885 255.7969,110.8069 Q255.7969,107.8538 257.0313,106.1194 Q258.2656,104.385 260.7813,104.385 Q261.6875,104.385 262.5625,104.6194 Q263.4531,104.8538 264.2188,105.4006 L263.5313,107.0725 Q262.0938,106.2756 260.7813,106.2756 Q259.3594,106.2756 258.6406,107.3381 Q257.9375,108.385 257.9375,110.8069 Q257.9375,115.3538 260.7813,115.3538 Q262.0469,115.3538 263.7344,114.3694 L264.4063,116.0569 Z " fill="#000000"/><text fill="#000000" font-family="sans-serif" font-size="14" lengthAdjust="spacing" textLength="103" x="280.75" y="116.0779">scoped_logger</text><line style="stroke:#181818;stroke-width:0.5;" x1="8" x2="624" y1="126.51" y2="126.51"/><rect fill="none" height="6" style="stroke:#C82930;stroke-width:1.0;" width="6" x="15" y="137.5173"/><text fill="#000000" font-family="sans-serif" font-size="14" lengthAdjust="spacing" textLength="166" x="27" y="144.5852">_ss : std::stringstream</text><line style="stroke:#181818;stroke-width:0.5;" x1="8" x2="624" y1="151.5246" y2="151.5246"/><ellipse cx="18" cy="165.532" fill="#84BE84" rx="3" ry="3" style="stroke:#038048;stroke-width:1.0;"/><text fill="#000000" font-family="sans-serif" font-size="14" lengthAdjust="spacing" textLength="592" x="27" y="169.5998">scoped_logger(const std::string&amp; className, const char* funcName, unsigned line)</text><ellipse cx="18" cy="182.5466" fill="#84BE84" rx="3" ry="3" style="stroke:#038048;stroke-width:1.0;"/><text fill="#000000" font-family="sans-serif" font-size="14" lengthAdjust="spacing" textLength="126" x="27" y="186.6145">~scoped_logger()</text><ellipse cx="18" cy="199.5613" fill="#84BE84" rx="3" ry="3" style="stroke:#038048;stroke-width:1.0;"/><text fill="#000000" font-family="sans-serif" font-size="14" lengthAdjust="spacing" textLength="212" x="27" y="203.6291">stream() : std::stringstream&amp;</text></g><!--reverse link ThreadPoolTest to ThreadPool--><g id="link_ThreadPoolTest_ThreadPool"><path codeLine="52" d="M1043,233.32 C1043,253.11 1043,274.46 1043,294.76 " fill="none" id="ThreadPoolTest-backto-ThreadPool" style="stroke:#181818;stroke-width:1.0;"/><polygon fill="#181818" points="1043,220.57,1039,226.57,1043,232.57,1047,226.57,1043,220.57" style="stroke:#181818;stroke-width:1.0;"/></g><!--SRC=[TLDDR-8m43tZNp5I9GYbX3kA8bLT8UrXkoj1UusCCmHNYPtQ3bkreh-zOviKic9HH2RllVdqU361tziN5Cx2PC6OgBcrO8LkiIngNLLeu8EDPWCa4LfP1zQLowLrHgfg3C7naJTu1v4LUsvkOTSf4T5EMLafBA6M2gSKydCOaw1vGRcNbt7f7tdZymSZcLwZn-p865EKnRPS88YcZ5MV8KS54J2AxMtsv5R-qRhUu8aOtJHdj4_IAVdQOT4wavt9FAZNw9xQKCv1op907zPn9yKH0kSZhplfS2ZQ83S_z5_r7zUUlkfzPFGCkg9oxDM-Oa-pCv1O-Ow50nUG1zqfD_MIkJyW9xNAV98aOBFF2x-eQjPEjuC1RUaLn0PjLxj2xmgNhP9xKrb8qnIcUOvlA3g7aC1gF8RT7NYIB4zpCdrh1byxII7YmAKwQC6tDMOhY78lpcC93rgLqfVwp8tqelwOH4yKXnCJ7NvHyhTUrFYFYCS-lZVjGCklJHRiE9wy7xRVA_ej9l1JxT58nnMDtM3DVJgxbssyDL5pNrK6gq1TqOIjJ6aHqt_MxtO-XnFfp_E2Pj_f7qb8LqTVt5Js1G00]--></g></svg>